<?xml version="1.0" encoding="UTF-8"?>
<svg width="923px" height="200px" viewBox="0 0 923 200" version="1.1" xmlns="http://www.w3.org/2000/svg" xmlns:xlink="http://www.w3.org/1999/xlink">
    <!-- Generator: Sketch 48.2 (47327) - http://www.bohemiancoding.com/sketch -->
    <title>death star lights bg</title>
    <desc>Created with Sketch.</desc>
    <defs></defs>
    <g id="Front" stroke="none" stroke-width="1" fill="none" fill-rule="evenodd" transform="translate(-339.000000, 0.000000)">
        <g id="header" fill="#D8D8D8">
            <g id="death-star-lights-bg" transform="translate(339.000000, -15.000000)">
                <g id="death-star-lights">
                    <g id="col1">
                        <rect id="Rectangle-2" x="0" y="0" width="23.0717489" height="138.926174" rx="11.5358744"></rect>
                        <rect id="Rectangle-2-Copy" x="0" y="160.536913" width="23.0717489" height="69.4630872" rx="11.5358744"></rect>
                    </g>
                    <g id="col2" transform="translate(61.219731, 115.000000) scale(1, -1) translate(-61.219731, -115.000000) translate(49.219731, 0.000000)">
                        <rect id="Rectangle-2" x="0" y="0" width="23.0717489" height="138.926174" rx="11.5358744"></rect>
                        <rect id="Rectangle-2-Copy" x="0" y="160.536913" width="23.0717489" height="69.4630872" rx="11.5358744"></rect>
                    </g>
                    <g id="col3" transform="translate(95.363229, 0.000000)">
                        <rect id="Rectangle-2" x="0" y="0" width="23.0717489" height="138.926174" rx="11.5358744"></rect>
                        <rect id="Rectangle-2-Copy" x="0" y="160.536913" width="23.0717489" height="69.4630872" rx="11.5358744"></rect>
                    </g>
                    <g id="col4" transform="translate(156.582960, 115.000000) scale(1, -1) translate(-156.582960, -115.000000) translate(144.582960, 0.000000)">
                        <rect id="Rectangle-2" x="0" y="0" width="23.0717489" height="138.926174" rx="11.5358744"></rect>
                        <rect id="Rectangle-2-Copy" x="0" y="160.536913" width="23.0717489" height="69.4630872" rx="11.5358744"></rect>
                    </g>
                    <g id="col5" transform="translate(192.264574, 0.000000)">
                        <rect id="Rectangle-2" x="0" y="0" width="23.0717489" height="138.926174" rx="11.5358744"></rect>
                        <rect id="Rectangle-2-Copy" x="0" y="160.536913" width="23.0717489" height="69.4630872" rx="11.5358744"></rect>
                    </g>
                </g>
                <g id="death-star-lights-copy" transform="translate(343.831839, 115.000000) scale(1, -1) translate(-343.831839, -115.000000) translate(235.331839, 0.000000)">
                    <g id="col1">
                        <rect id="Rectangle-2" x="0" y="0" width="23.0717489" height="138.926174" rx="11.5358744"></rect>
                        <rect id="Rectangle-2-Copy" x="0" y="160.536913" width="23.0717489" height="69.4630872" rx="11.5358744"></rect>
                    </g>
                    <g id="col2" transform="translate(61.219731, 115.000000) scale(1, -1) translate(-61.219731, -115.000000) translate(49.219731, 0.000000)">
                        <rect id="Rectangle-2" x="0" y="0" width="23.0717489" height="138.926174" rx="11.5358744"></rect>
                        <rect id="Rectangle-2-Copy" x="0" y="160.536913" width="23.0717489" height="69.4630872" rx="11.5358744"></rect>
                    </g>
                    <g id="col3" transform="translate(95.363229, 0.000000)">
                        <rect id="Rectangle-2" x="0" y="0" width="23.0717489" height="138.926174" rx="11.5358744"></rect>
                        <rect id="Rectangle-2-Copy" x="0" y="160.536913" width="23.0717489" height="69.4630872" rx="11.5358744"></rect>
                    </g>
                    <g id="col4" transform="translate(156.582960, 115.000000) scale(1, -1) translate(-156.582960, -115.000000) translate(144.582960, 0.000000)">
                        <rect id="Rectangle-2" x="0" y="0" width="23.0717489" height="138.926174" rx="11.5358744"></rect>
                        <rect id="Rectangle-2-Copy" x="0" y="160.536913" width="23.0717489" height="69.4630872" rx="11.5358744"></rect>
                    </g>
                    <g id="col5" transform="translate(192.264574, 0.000000)">
                        <rect id="Rectangle-2" x="0" y="0" width="23.0717489" height="138.926174" rx="11.5358744"></rect>
                        <rect id="Rectangle-2-Copy" x="0" y="160.536913" width="23.0717489" height="69.4630872" rx="11.5358744"></rect>
                    </g>
                </g>
                <g id="death-star-lights-copy-2" transform="translate(470.663677, 0.000000)">
                    <g id="col1">
                        <rect id="Rectangle-2" x="0" y="0" width="23.0717489" height="138.926174" rx="11.5358744"></rect>
                        <rect id="Rectangle-2-Copy" x="0" y="160.536913" width="23.0717489" height="69.4630872" rx="11.5358744"></rect>
                    </g>
                    <g id="col2" transform="translate(61.219731, 115.000000) scale(1, -1) translate(-61.219731, -115.000000) translate(49.219731, 0.000000)">
                        <rect id="Rectangle-2" x="0" y="0" width="23.0717489" height="138.926174" rx="11.5358744"></rect>
                        <rect id="Rectangle-2-Copy" x="0" y="160.536913" width="23.0717489" height="69.4630872" rx="11.5358744"></rect>
                    </g>
                    <g id="col3" transform="translate(95.363229, 0.000000)">
                        <rect id="Rectangle-2" x="0" y="0" width="23.0717489" height="138.926174" rx="11.5358744"></rect>
                        <rect id="Rectangle-2-Copy" x="0" y="160.536913" width="23.0717489" height="69.4630872" rx="11.5358744"></rect>
                    </g>
                    <g id="col4" transform="translate(156.582960, 115.000000) scale(1, -1) translate(-156.582960, -115.000000) translate(144.582960, 0.000000)">
                        <rect id="Rectangle-2" x="0" y="0" width="23.0717489" height="138.926174" rx="11.5358744"></rect>
                        <rect id="Rectangle-2-Copy" x="0" y="160.536913" width="23.0717489" height="69.4630872" rx="11.5358744"></rect>
                    </g>
                    <g id="col5" transform="translate(192.264574, 0.000000)">
                        <rect id="Rectangle-2" x="0" y="0" width="23.0717489" height="138.926174" rx="11.5358744"></rect>
                        <rect id="Rectangle-2-Copy" x="0" y="160.536913" width="23.0717489" height="69.4630872" rx="11.5358744"></rect>
                    </g>
                </g>
                <g id="death-star-lights-copy-3" transform="translate(816.163677, 115.000000) scale(1, -1) translate(-816.163677, -115.000000) translate(707.663677, 0.000000)">
                    <g id="col1">
                        <rect id="Rectangle-2" x="0" y="0" width="23.0717489" height="138.926174" rx="11.5358744"></rect>
                        <rect id="Rectangle-2-Copy" x="0" y="160.536913" width="23.0717489" height="69.4630872" rx="11.5358744"></rect>
                    </g>
                    <g id="col2" transform="translate(61.219731, 115.000000) scale(1, -1) translate(-61.219731, -115.000000) translate(49.219731, 0.000000)">
                        <rect id="Rectangle-2" x="0" y="0" width="23.0717489" height="138.926174" rx="11.5358744"></rect>
                        <rect id="Rectangle-2-Copy" x="0" y="160.536913" width="23.0717489" height="69.4630872" rx="11.5358744"></rect>
                    </g>
                    <g id="col3" transform="translate(95.363229, 0.000000)">
                        <rect id="Rectangle-2" x="0" y="0" width="23.0717489" height="138.926174" rx="11.5358744"></rect>
                        <rect id="Rectangle-2-Copy" x="0" y="160.536913" width="23.0717489" height="69.4630872" rx="11.5358744"></rect>
                    </g>
                    <g id="col4" transform="translate(156.582960, 115.000000) scale(1, -1) translate(-156.582960, -115.000000) translate(144.582960, 0.000000)">
                        <rect id="Rectangle-2" x="0" y="0" width="23.0717489" height="138.926174" rx="11.5358744"></rect>
                        <rect id="Rectangle-2-Copy" x="0" y="160.536913" width="23.0717489" height="69.4630872" rx="11.5358744"></rect>
                    </g>
                    <g id="col5" transform="translate(192.264574, 0.000000)">
                        <rect id="Rectangle-2" x="0" y="0" width="23.0717489" height="138.926174" rx="11.5358744"></rect>
                        <rect id="Rectangle-2-Copy" x="0" y="160.536913" width="23.0717489" height="69.4630872" rx="11.5358744"></rect>
                    </g>
                </g>
            </g>
        </g>
    </g>
</svg>