<svg width="923" height="200" viewBox="0 0 923 200" xmlns="http://www.w3.org/2000/svg"><title>death star lights bg</title><g fill="#D8D8D8" fill-rule="evenodd"><g transform="translate(0 -15)"><rect width="23.072" height="138.926" rx="11.536"/><rect y="160.537" width="23.072" height="69.463" rx="11.536"/></g><g transform="matrix(1 0 0 -1 49.22 215)"><rect width="23.072" height="138.926" rx="11.536"/><rect y="160.537" width="23.072" height="69.463" rx="11.536"/></g><g transform="translate(95.363 -15)"><rect width="23.072" height="138.926" rx="11.536"/><rect y="160.537" width="23.072" height="69.463" rx="11.536"/></g><g transform="matrix(1 0 0 -1 144.583 215)"><rect width="23.072" height="138.926" rx="11.536"/><rect y="160.537" width="23.072" height="69.463" rx="11.536"/></g><g transform="translate(192.265 -15)"><rect width="23.072" height="138.926" rx="11.536"/><rect y="160.537" width="23.072" height="69.463" rx="11.536"/></g><g><g transform="matrix(1 0 0 -1 235.332 215)"><rect width="23.072" height="138.926" rx="11.536"/><rect y="160.537" width="23.072" height="69.463" rx="11.536"/></g><g transform="translate(284.552 -15)"><rect width="23.072" height="138.926" rx="11.536"/><rect y="160.537" width="23.072" height="69.463" rx="11.536"/></g><g transform="matrix(1 0 0 -1 330.695 215)"><rect width="23.072" height="138.926" rx="11.536"/><rect y="160.537" width="23.072" height="69.463" rx="11.536"/></g><g transform="translate(379.915 -15)"><rect width="23.072" height="138.926" rx="11.536"/><rect y="160.537" width="23.072" height="69.463" rx="11.536"/></g><g transform="matrix(1 0 0 -1 427.596 215)"><rect width="23.072" height="138.926" rx="11.536"/><rect y="160.537" width="23.072" height="69.463" rx="11.536"/></g></g><g><g transform="translate(470.664 -15)"><rect width="23.072" height="138.926" rx="11.536"/><rect y="160.537" width="23.072" height="69.463" rx="11.536"/></g><g transform="matrix(1 0 0 -1 519.883 215)"><rect width="23.072" height="138.926" rx="11.536"/><rect y="160.537" width="23.072" height="69.463" rx="11.536"/></g><g transform="translate(566.027 -15)"><rect width="23.072" height="138.926" rx="11.536"/><rect y="160.537" width="23.072" height="69.463" rx="11.536"/></g><g transform="matrix(1 0 0 -1 615.247 215)"><rect width="23.072" height="138.926" rx="11.536"/><rect y="160.537" width="23.072" height="69.463" rx="11.536"/></g><g transform="translate(662.928 -15)"><rect width="23.072" height="138.926" rx="11.536"/><rect y="160.537" width="23.072" height="69.463" rx="11.536"/></g></g><g><g transform="matrix(1 0 0 -1 707.664 215)"><rect width="23.072" height="138.926" rx="11.536"/><rect y="160.537" width="23.072" height="69.463" rx="11.536"/></g><g transform="translate(756.883 -15)"><rect width="23.072" height="138.926" rx="11.536"/><rect y="160.537" width="23.072" height="69.463" rx="11.536"/></g><g transform="matrix(1 0 0 -1 803.027 215)"><rect width="23.072" height="138.926" rx="11.536"/><rect y="160.537" width="23.072" height="69.463" rx="11.536"/></g><g transform="translate(852.247 -15)"><rect width="23.072" height="138.926" rx="11.536"/><rect y="160.537" width="23.072" height="69.463" rx="11.536"/></g><g transform="matrix(1 0 0 -1 899.928 215)"><rect width="23.072" height="138.926" rx="11.536"/><rect y="160.537" width="23.072" height="69.463" rx="11.536"/></g></g></g></svg>