<svg data-name="Layer 1" xmlns="http://www.w3.org/2000/svg" viewBox="0 0 1298.63 434.55"><defs><linearGradient id="a" x1="645.95" x2="645.95" y2="434.55" gradientUnits="userSpaceOnUse"><stop offset="0" stop-color="#5e94f4"/><stop offset="1" stop-color="#4872bd"/></linearGradient></defs><path d="M125.31 38.18l-27.94 10.7V10.39L125.3 0m0 38.18l27.5 10.69V10.38L125.3 0m2.56 45.84l.16.06v-.19zm112.49 60.47l.17 268.1H250v15.29l-.19.29-120.38 44.56L129.35 46l119.17 42.17h1v18h-.95zm-55.55-1.71l-41.58-10.2v55.38l41.57 6.66zm41.17 11l-36.86-9.8.11 51.64L226 163.5zM121 46l.33-.12-.33-.13zM.78 88l119.33-42.06.08 388.52L0 389.94v-15.76h9.3l-.05-267.82-8.46.14H0V88zM55 173.16l-27 3.93v42.81l27-1.63zm9.73-16.69l41.57-6.69V94.41l-41.61 10.22zm-41.58 7.07l37-6.09v-51.64l-36.95 9.83zm273.64-40.65v9h25.57v69.81H333v-69.85h25.47v-9zm136.84 0h-10.76V158h-42.46v-35.11h-10.72v78.81h10.72v-35.86h42.46v35.86h10.73zm19.25 0v78.81h48.56V193h-37.87v-26.88h30.64v-8.36h-30.64v-26.18h37.84v-8.69zm150.64 23.32a36.08 36.08 0 0 0-7.92-12.46 35.2 35.2 0 0 0-12.27-8 42.57 42.57 0 0 0-15.84-2.83H538v78.78h29.48a42.57 42.57 0 0 0 15.84-2.83 35.27 35.27 0 0 0 12.27-8 35.77 35.77 0 0 0 7.92-12.43 47.77 47.77 0 0 0 0-32.23zm-10.15 29.09a27 27 0 0 1-5.61 9.66 24 24 0 0 1-8.8 6 30.5 30.5 0 0 1-11.5 2.09h-18.75v-61.53h18.75a30.5 30.5 0 0 1 11.5 2.09 24 24 0 0 1 8.8 6 27.39 27.39 0 0 1 5.61 9.68 43.54 43.54 0 0 1 0 26zm97.84-29.23a37.58 37.58 0 0 0-7.92-12.76A35.54 35.54 0 0 0 671 125a43.81 43.81 0 0 0-31.71 0 35.7 35.7 0 0 0-12.29 8.31 37.58 37.58 0 0 0-7.92 12.76 48.42 48.42 0 0 0 0 32.51 37.26 37.26 0 0 0 7.92 12.73 35.44 35.44 0 0 0 12.26 8.28 44.22 44.22 0 0 0 31.71 0 35.28 35.28 0 0 0 12.29-8.28 37.26 37.26 0 0 0 7.92-12.73 48.42 48.42 0 0 0 0-32.51zm-10.12 29.26a27.66 27.66 0 0 1-5.61 9.74 24 24 0 0 1-8.8 6.1 32.36 32.36 0 0 1-23 0 24.26 24.26 0 0 1-8.83-6.1 27.41 27.41 0 0 1-5.64-9.74 43.8 43.8 0 0 1 0-26 27.33 27.33 0 0 1 5.64-9.76 24.6 24.6 0 0 1 8.83-6.14 32.08 32.08 0 0 1 23 0 24.31 24.31 0 0 1 8.8 6.14 27.57 27.57 0 0 1 5.61 9.76 43.8 43.8 0 0 1 0 26zm81.24 10.92a34.88 34.88 0 0 1-4.16 3.22 21.26 21.26 0 0 1-4.45 2.22 26 26 0 0 1-5.2 1.3 44.52 44.52 0 0 1-6.32.41 27.73 27.73 0 0 1-10.78-2.09 24.31 24.31 0 0 1-8.67-6.08 29.13 29.13 0 0 1-5.77-9.76 38.06 38.06 0 0 1-2.12-13.15A37.37 37.37 0 0 1 717 149.4a28.15 28.15 0 0 1 5.91-9.79 25.93 25.93 0 0 1 9.05-6.19 30 30 0 0 1 11.58-2.17 32.75 32.75 0 0 1 6.21.52 29.32 29.32 0 0 1 4.73 1.29 23.79 23.79 0 0 1 3.52 1.65c1 .59 1.85 1.14 2.59 1.65s1.36.95 1.89 1.3a2.8 2.8 0 0 0 1.52.52 2.42 2.42 0 0 0 1.43-.36 3.82 3.82 0 0 0 .88-.91l3.46-4.89a35.84 35.84 0 0 0-26.18-10 42.67 42.67 0 0 0-16.11 2.98 36.37 36.37 0 0 0-12.48 8.23 37.48 37.48 0 0 0-8.14 12.77 44.78 44.78 0 0 0-2.86 16.32 47.51 47.51 0 0 0 2.7 16.34 37.09 37.09 0 0 0 7.59 12.73 33.78 33.78 0 0 0 11.82 8.25 39.2 39.2 0 0 0 15.46 2.94 40 40 0 0 0 16.63-3.13 33.71 33.71 0 0 0 11.75-8.75l-4.18-4.56a2.21 2.21 0 0 0-1.6-.72 2.8 2.8 0 0 0-1.84.83zm13.58-63.36v9h25.58v69.81h10.67v-69.85h25.46v-9zm137.94 23.18a37.58 37.58 0 0 0-7.92-12.76 35.63 35.63 0 0 0-12.29-8.31 43.81 43.81 0 0 0-31.71 0 35.7 35.7 0 0 0-12.26 8.33 37.58 37.58 0 0 0-7.92 12.76 48.42 48.42 0 0 0 0 32.51 37.26 37.26 0 0 0 7.92 12.73 35.44 35.44 0 0 0 12.26 8.28 44.22 44.22 0 0 0 31.71 0 35.37 35.37 0 0 0 12.29-8.28 37.26 37.26 0 0 0 7.92-12.73 48.42 48.42 0 0 0 0-32.51zm-10.12 29.26a27.66 27.66 0 0 1-5.61 9.74 24 24 0 0 1-8.8 6.1 32.36 32.36 0 0 1-23 0 24.26 24.26 0 0 1-8.83-6.1 27.41 27.41 0 0 1-5.64-9.74 43.8 43.8 0 0 1 0-26 27.33 27.33 0 0 1 5.64-9.76 24.6 24.6 0 0 1 8.83-6.14 32.08 32.08 0 0 1 23 0 24.31 24.31 0 0 1 8.8 6.14 27.57 27.57 0 0 1 5.61 9.76 43.8 43.8 0 0 1 0 26zm47.3-6.52a7.38 7.38 0 0 1 3.3.58 6.12 6.12 0 0 1 2 1.9l20.46 28.16a4.65 4.65 0 0 0 4.29 2.25h9.46l-23-31.29a11.28 11.28 0 0 0-3.52-3.36 29.86 29.86 0 0 0 8.16-3.08 22.71 22.71 0 0 0 6.11-4.92 20.55 20.55 0 0 0 3.82-6.52 22.67 22.67 0 0 0 1.32-7.81 23.16 23.16 0 0 0-1.7-9 17.52 17.52 0 0 0-5.26-6.91 24.75 24.75 0 0 0-9-4.37 48.61 48.61 0 0 0-12.92-1.51h-22.22v78.77H943v-32.89zM943 131.3h11.66q9.18 0 13.83 3.58t4.65 10.61a16.23 16.23 0 0 1-1.21 6.33 13.16 13.16 0 0 1-3.61 4.92 16.54 16.54 0 0 1-5.94 3.19 27.18 27.18 0 0 1-8.22 1.13H943zm96.13 70.4h9.57l20.08-60.11c.18-.55.36-1.16.52-1.84s.34-1.39.52-2.12a34.28 34.28 0 0 0 1.1 4l20 60.11h9.57l24.51-78.85h-8.3a3.64 3.64 0 0 0-2.34.77 3.48 3.48 0 0 0-1.24 1.76l-16.33 54.78a25.36 25.36 0 0 0-.72 3.08c-.18 1.1-.38 2.25-.6 3.46a53.52 53.52 0 0 0-1.76-6.54l-18.43-54.78a3.87 3.87 0 0 0-1.29-1.82 3.69 3.69 0 0 0-2.34-.71h-3.08a3.54 3.54 0 0 0-2.33.8 4 4 0 0 0-1.3 1.73l-18.54 54.78a29.6 29.6 0 0 0-.88 3.16c-.26 1.16-.51 2.36-.77 3.6q-.33-1.86-.69-3.57c-.24-1.14-.5-2.2-.8-3.19L1027 125.42a3.55 3.55 0 0 0-1.26-1.82 3.82 3.82 0 0 0-2.37-.71h-8.85zm160.22-78.81h-10.73V158h-42.46v-35.11h-10.72v78.81h10.72v-35.86h42.46v35.86h10.73zm89.65 23.18a37.58 37.58 0 0 0-7.92-12.76 35.63 35.63 0 0 0-12.29-8.33 43.81 43.81 0 0 0-31.71 0 35.64 35.64 0 0 0-12.27 8.33 37.58 37.58 0 0 0-7.92 12.76 48.58 48.58 0 0 0 0 32.51 37.26 37.26 0 0 0 7.92 12.73 35.38 35.38 0 0 0 12.27 8.28 44.22 44.22 0 0 0 31.71 0 35.37 35.37 0 0 0 12.29-8.28 37.26 37.26 0 0 0 7.92-12.73 48.58 48.58 0 0 0 0-32.51zm-10.12 29.26a27.66 27.66 0 0 1-5.61 9.74 24 24 0 0 1-8.8 6.1 32.39 32.39 0 0 1-23.05 0 24.3 24.3 0 0 1-8.82-6.1 27.41 27.41 0 0 1-5.64-9.74 43.8 43.8 0 0 1 0-26 27.33 27.33 0 0 1 5.64-9.76 24.65 24.65 0 0 1 8.82-6.14 32.1 32.1 0 0 1 23.05 0 24.31 24.31 0 0 1 8.8 6.14 27.57 27.57 0 0 1 5.61 9.76 43.8 43.8 0 0 1 0 26zM338.52 337.45a52 52 0 0 0 16.31-2.35 34.85 34.85 0 0 0 12-6.51 27.62 27.62 0 0 0 7.39-9.76 29.15 29.15 0 0 0 2.52-12.11q0-8.61-4.83-14.11T357 284.67a34.55 34.55 0 0 0 7.91-4 23 23 0 0 0 5.39-5.07 19.39 19.39 0 0 0 3.08-6 22.41 22.41 0 0 0 1-6.61 29.22 29.22 0 0 0-2.14-11.41 20.87 20.87 0 0 0-6.84-8.58 34.33 34.33 0 0 0-12.11-5.53 71.19 71.19 0 0 0-18-2h-37.51v102zm-17.08-84.28h13.86a32.83 32.83 0 0 1 6.89.63 11.76 11.76 0 0 1 4.8 2.1 8.68 8.68 0 0 1 2.8 3.88 17.27 17.27 0 0 1 .91 6.06 14.44 14.44 0 0 1-1.16 6.16 9 9 0 0 1-3.36 3.85 14.67 14.67 0 0 1-5.35 2 41 41 0 0 1-7.07.56h-12.32zm16.52 41a27.52 27.52 0 0 1 7.42.84 12.24 12.24 0 0 1 4.72 2.38 8.37 8.37 0 0 1 2.52 3.78 16.09 16.09 0 0 1 .74 5 18.84 18.84 0 0 1-.63 4.83 10.31 10.31 0 0 1-2.31 4.27 12 12 0 0 1-4.66 3.08 20.91 20.91 0 0 1-7.66 1.19h-16.66v-25.35zm83.58-58.73h-23.8v102h23.8zm61.07 82.63a26.34 26.34 0 0 1-9.38-6.61 31.09 31.09 0 0 1-6.23-10.62 42.77 42.77 0 0 1-2.24-14.42 41.19 41.19 0 0 1 2-13.34 29.72 29.72 0 0 1 5.77-10.25 25.74 25.74 0 0 1 9.07-6.62 29.39 29.39 0 0 1 12-2.34 54.36 54.36 0 0 1 6.44.35 33.4 33.4 0 0 1 5.46 1.12 32.49 32.49 0 0 1 5.07 2q2.49 1.23 5.29 2.91a8.22 8.22 0 0 0 4.34 1.4 5.56 5.56 0 0 0 3-.84 7.71 7.71 0 0 0 2.35-2.31l6.86-10.43a47.07 47.07 0 0 0-7-5.46 47.57 47.57 0 0 0-8.65-4.34 58.34 58.34 0 0 0-10.32-2.87 65 65 0 0 0-12-1 61.42 61.42 0 0 0-22.3 3.85 49 49 0 0 0-17 10.78 47.19 47.19 0 0 0-10.81 16.48 56.52 56.52 0 0 0-3.78 21 53.82 53.82 0 0 0 3.95 20.75 49.59 49.59 0 0 0 27.41 27.44 53.38 53.38 0 0 0 20.72 4 101.13 101.13 0 0 0 11.65-.63 66.82 66.82 0 0 0 10.22-2 52.48 52.48 0 0 0 9-3.4 53.18 53.18 0 0 0 8.16-4.93v-43h-36.2v13a4 4 0 0 0 1.26 3 4.9 4.9 0 0 0 3.5 1.19h10.08v15.47a42.8 42.8 0 0 1-7.14 2.24 40.3 40.3 0 0 1-8.68.84 30.33 30.33 0 0 1-11.87-2.39zm143.32 19.36a52 52 0 0 0 16.31-2.35 34.9 34.9 0 0 0 12-6.51 27.59 27.59 0 0 0 7.38-9.76 29.15 29.15 0 0 0 2.52-12.11q0-8.61-4.83-14.11t-14.91-7.94a34.55 34.55 0 0 0 7.91-4 22.85 22.85 0 0 0 5.39-5.07 19.17 19.17 0 0 0 3.08-6 22.09 22.09 0 0 0 1-6.61 29.4 29.4 0 0 0-2.14-11.41 21 21 0 0 0-6.83-8.68 34.28 34.28 0 0 0-12.1-5.53 71.27 71.27 0 0 0-18-2h-37.52v102zm-17.08-84.28h13.86a32.93 32.93 0 0 1 6.9.63 11.77 11.77 0 0 1 4.79 2.1 8.7 8.7 0 0 1 2.81 3.88 17.5 17.5 0 0 1 .91 6.06A14.44 14.44 0 0 1 637 272a9 9 0 0 1-3.36 3.85 14.73 14.73 0 0 1-5.36 2 40.87 40.87 0 0 1-7.07.56h-12.36zm16.53 41a27.49 27.49 0 0 1 7.41.84 12.29 12.29 0 0 1 4.73 2.38 8.37 8.37 0 0 1 2.52 3.78 16.09 16.09 0 0 1 .74 5 18.85 18.85 0 0 1-.64 4.83 10.2 10.2 0 0 1-2.31 4.27 12.08 12.08 0 0 1-4.65 3.08 21 21 0 0 1-7.67 1.19h-16.66v-25.33zm81.33-58.73h-23.66v102h61.46v-18.9h-37.8zm88.94 81.72a17 17 0 0 1-6.34-4.55 20.33 20.33 0 0 1-3.95-7.21 31.29 31.29 0 0 1-1.36-9.58v-60.34h-23.67v60.41a47.84 47.84 0 0 0 3 17.22A38.24 38.24 0 0 0 772 326.6a39.36 39.36 0 0 0 13.79 8.82 54.76 54.76 0 0 0 36.61 0 39.27 39.27 0 0 0 13.79-8.82 38.61 38.61 0 0 0 8.72-13.51 47.2 47.2 0 0 0 3-17.22v-60.41h-23.6v60.41a31.3 31.3 0 0 1-1.36 9.62 19.88 19.88 0 0 1-4 7.18 17.17 17.17 0 0 1-6.33 4.51 23.68 23.68 0 0 1-17 0zm73.74-81.72v102h65.66v-18.2h-41.86V295h32.06v-17.5h-32.06v-23.8h41.86v-18.2zm158.9 102a52 52 0 0 0 16.31-2.35 35 35 0 0 0 12-6.51 27.71 27.71 0 0 0 7.38-9.76 29.15 29.15 0 0 0 2.52-12.11q0-8.61-4.83-14.11t-14.91-7.94a34.55 34.55 0 0 0 7.91-4 23 23 0 0 0 5.39-5.07 19.39 19.39 0 0 0 3.08-6 22.41 22.41 0 0 0 1-6.61 29.4 29.4 0 0 0-2.13-11.41 21 21 0 0 0-6.83-8.68 34.33 34.33 0 0 0-12.11-5.53 71.19 71.19 0 0 0-18-2h-37.52v102zm-17.08-84.28h13.86a33 33 0 0 1 6.9.63 11.77 11.77 0 0 1 4.79 2.1 8.68 8.68 0 0 1 2.8 3.88 17.27 17.27 0 0 1 .91 6.06 14.6 14.6 0 0 1-1.15 6.16 9.06 9.06 0 0 1-3.36 3.85 14.73 14.73 0 0 1-5.36 2 41 41 0 0 1-7.07.56h-12.32zm16.52 41a27.52 27.52 0 0 1 7.42.84 12.29 12.29 0 0 1 4.73 2.38 8.37 8.37 0 0 1 2.52 3.78 16.1 16.1 0 0 1 .73 5 18.84 18.84 0 0 1-.63 4.83 10.31 10.31 0 0 1-2.31 4.27 12.08 12.08 0 0 1-4.65 3.08 21 21 0 0 1-7.67 1.19h-16.66v-25.32zm154.52-28.28a49.16 49.16 0 0 0-10.74-16.52 50.05 50.05 0 0 0-16.7-11 56.39 56.39 0 0 0-21.66-4 57 57 0 0 0-21.7 4 49.91 49.91 0 0 0-16.77 11 49.1 49.1 0 0 0-10.78 16.52 57.49 57.49 0 0 0 0 41.16 48.71 48.71 0 0 0 27.55 27.58 60.9 60.9 0 0 0 43.36 0 48.64 48.64 0 0 0 27.44-27.6 57.16 57.16 0 0 0 0-41.09zm-22.36 34.19a28.89 28.89 0 0 1-5.64 10.26 24 24 0 0 1-9 6.4 31.43 31.43 0 0 1-12.11 2.21 31.89 31.89 0 0 1-12.22-2.21 23.89 23.89 0 0 1-9-6.4 28.87 28.87 0 0 1-5.63-10.26 48.51 48.51 0 0 1 0-27.3 28.91 28.91 0 0 1 5.63-10.25 24.2 24.2 0 0 1 9-6.44 31.51 31.51 0 0 1 12.22-2.24 31.05 31.05 0 0 1 12.11 2.24 24.3 24.3 0 0 1 9 6.44 28.93 28.93 0 0 1 5.64 10.25 48.51 48.51 0 0 1 0 27.3zm33.74 37.35h22.12a5.33 5.33 0 0 0 3.5-1.16 9.56 9.56 0 0 0 2.24-2.62l19-33a15 15 0 0 0 1.26-2.66l20.44 35.7a8.48 8.48 0 0 0 2.27 2.66 5.91 5.91 0 0 0 3.75 1.12h23.66L1259.22 284l32-48.51h-22.68a5.32 5.32 0 0 0-4.76 2.94L1246 268.92c-.38.61-.72 1.19-1 1.75a14.63 14.63 0 0 0-.8 1.75l-20.3-34.37a5.32 5.32 0 0 0-1.93-2 7.43 7.43 0 0 0-3.39-.59h-23.66l31.54 49.54z" fill="url(#a)"/></svg>