<svg data-name="Layer 1" xmlns="http://www.w3.org/2000/svg" viewBox="0 0 576 419"><path d="M528.3 0H388.5a102.83 102.83 0 0 0-100.4 80.32A102.91 102.91 0 0 0 187.7 0H48A48 48 0 0 0 0 48v245.87a48 48 0 0 0 48 48h89.7c102.2 0 132.7 24.41 147.3 75 .7 2.8 5.2 2.8 6 0 14.7-50.61 45.2-75 147.3-75H528a48 48 0 0 0 48-48V48.11A48.11 48.11 0 0 0 528.3 0zM242 265.46a3.48 3.48 0 0 1-3.5 3.5H78.2a3.48 3.48 0 0 1-3.5-3.5v-22.9a3.48 3.48 0 0 1 3.5-3.5h160.4a3.48 3.48 0 0 1 3.5 3.5v22.9zm0-60.91a3.48 3.48 0 0 1-3.5 3.5H78.2a3.48 3.48 0 0 1-3.5-3.5v-22.91a3.48 3.48 0 0 1 3.5-3.5h160.4a3.48 3.48 0 0 1 3.5 3.5v22.91zm0-60.92a3.49 3.49 0 0 1-3.5 3.51H78.2a3.49 3.49 0 0 1-3.5-3.51v-22.9a3.48 3.48 0 0 1 3.5-3.5h160.4a3.48 3.48 0 0 1 3.5 3.5v22.9zm259.3 121.73a3.48 3.48 0 0 1-3.5 3.5H337.5a3.48 3.48 0 0 1-3.5-3.5v-22.9a3.48 3.48 0 0 1 3.5-3.5h160.4a3.48 3.48 0 0 1 3.5 3.5v22.9zm0-60.91a3.48 3.48 0 0 1-3.5 3.5H337.5a3.48 3.48 0 0 1-3.5-3.5v-22.91a3.48 3.48 0 0 1 3.5-3.5h160.4a3.48 3.48 0 0 1 3.5 3.5v22.91zm0-60.92a3.49 3.49 0 0 1-3.5 3.51H337.5a3.49 3.49 0 0 1-3.5-3.51v-22.8a3.48 3.48 0 0 1 3.5-3.5h160.4a3.48 3.48 0 0 1 3.5 3.5v22.8z" fill="#5e94f4"/></svg>