<svg xmlns="http://www.w3.org/2000/svg" viewBox="0 0 400 120">
  <style>
    .st0,.st1{display:none;fill:#fff}.st1{fill:none;stroke:#fff;stroke-width:1.5;stroke-linecap:round}.st14{fill:#5e94f4}.st15{fill:#9ec0f2}
  </style>
  <g id="Layer_1">
    <path class="st0" d="M16.5 8.5c.3.1.4.5.2.8-.1.1-.1.2-.2.2l-11.4 7c-.5.3-.8.1-.8-.5V2c0-.5.4-.8.8-.5l11.4 7zM24 1h2.2c.6 0 1 .4 1 1v14c0 .6-.4 1-1 1H24c-.6 0-1-.4-1-1V2c0-.5.4-1 1-1zm9.8 0H36c.6 0 1 .4 1 1v14c0 .6-.4 1-1 1h-2.2c-.6 0-1-.4-1-1V2c0-.5.4-1 1-1zM81 1.4c0-.6.4-1 1-1h5.4c.6 0 .7.3.3.7l-6 6c-.4.4-.7.3-.7-.3V1.4zm0 15.8c0 .6.4 1 1 1h5.4c.6 0 .7-.3.3-.7l-6-6c-.4-.4-.7-.3-.7.3v5.4zM98.8 1.4c0-.6-.4-1-1-1h-5.4c-.6 0-.7.3-.3.7l6 6c.4.4.7.3.7-.3V1.4zm0 15.8c0 .6-.4 1-1 1h-5.4c-.6 0-.7-.3-.3-.7l6-6c.4-.4.7-.3.7.3v5.4zM112.7 5c0 .6.4 1 1 1h4.1c.6 0 .7-.3.3-.7L113.4.6c-.4-.4-.7-.3-.7.3V5zm-7.1 1c.6 0 1-.4 1-1V.9c0-.6-.3-.7-.7-.3l-4.7 4.7c-.4.4-.3.7.3.7h4.1zm1 7.1c0-.6-.4-1-1-1h-4.1c-.6 0-.7.3-.3.7l4.7 4.7c.4.4.7.3.7-.3v-4.1zm7.1-1c-.6 0-1 .4-1 1v4.1c0 .5.3.7.7.3l4.7-4.7c.4-.4.3-.7-.3-.7h-4.1zM67 5.8c-.5.4-1.2.6-1.8.6H62c-.6 0-1 .4-1 1v5.7c0 .6.4 1 1 1h4.2c.3.2.5.4.8.6l3.5 2.6c.4.3.8.1.8-.4V3.5c0-.5-.4-.7-.8-.4L67 5.8z"/>
    <path class="st1" d="M73.9 2.5s3.9-.8 3.9 7.7-3.9 7.8-3.9 7.8"/>
    <path class="st1" d="M72.6 6.4s2.6-.4 2.6 3.8-2.6 3.9-2.6 3.9"/>
    <path class="st0" d="M47 5.8c-.5.4-1.2.6-1.8.6H42c-.6 0-1 .4-1 1v5.7c0 .6.4 1 1 1h4.2c.3.2.5.4.8.6l3.5 2.6c.4.3.8.1.8-.4V3.5c0-.5-.4-.7-.8-.4L47 5.8zM122.2 3.4h15.7v13.1h-15.7V3.4zM120.8 2v15.7h18.3V2h-18.3zM143.2 3h14c1.1 0 2 .9 2 2v10c0 1.1-.9 2-2 2h-14c-1.1 0-2-.9-2-2V5c0-1.1.9-2 2-2zM60.3 77c.6.2.8.8.6 1.4-.1.3-.3.5-.6.6L30 96.5c-1 .6-1.7.1-1.7-1v-35c0-1.1.8-1.5 1.7-1L60.3 77zM140.3 77c.6.2.8.8.6 1.4-.1.3-.3.5-.6.6L110 96.5c-1 .6-1.7.1-1.7-1v-35c0-1.1.8-1.5 1.7-1L140.3 77z"/>
    <circle class="st0" cx="283.9" cy="47.1" r="8.1"/>
    <path class="st0" d="M178 9.4c0 .4-.4.7-.9.7-.1 0-.2 0-.2-.1L172 8.2c-.5-.2-.6-.6-.1-.8l6.2-3.6c.5-.3.8-.1.7.5l-.8 5.1z"/>
    <path class="st0" d="M169.4 15.9c-1 0-2-.2-2.9-.7-2-1-3.2-3-3.2-5.2.1-3.4 2.9-6 6.3-6 2.5.1 4.8 1.7 5.6 4.1l.1-.1 2.1 1.1c-.6-4.4-4.7-7.5-9.1-6.9-3.9.6-6.9 3.9-7 7.9 0 2.9 1.7 5.6 4.3 7 1.2.6 2.5.9 3.8 1 2.6 0 5-1.2 6.6-3.3l-1.8-.9c-1.2 1.2-3 2-4.8 2zM183.4 3.2c.8 0 1.5.7 1.5 1.5s-.7 1.5-1.5 1.5-1.5-.7-1.5-1.5c0-.9.7-1.5 1.5-1.5zm5.1 0h8.5c.9 0 1.5.7 1.5 1.5s-.7 1.5-1.5 1.5h-8.5c-.9 0-1.5-.7-1.5-1.5-.1-.9.6-1.5 1.5-1.5zm-5.1 5c.8 0 1.5.7 1.5 1.5s-.7 1.5-1.5 1.5-1.5-.7-1.5-1.5c0-.9.7-1.5 1.5-1.5zm5.1 0h8.5c.9 0 1.5.7 1.5 1.5s-.7 1.5-1.5 1.5h-8.5c-.9 0-1.5-.7-1.5-1.5-.1-.9.6-1.5 1.5-1.5zm-5.1 5c.8 0 1.5.7 1.5 1.5s-.7 1.5-1.5 1.5-1.5-.7-1.5-1.5c0-.9.7-1.5 1.5-1.5zm5.1 0h8.5c.9 0 1.5.7 1.5 1.5s-.7 1.5-1.5 1.5h-8.5c-.9 0-1.5-.7-1.5-1.5-.1-.9.6-1.5 1.5-1.5z"/>
  </g>
  <path class="st14" d="M4.3 1.3v15.4L17.8 9 4.3 1.3z" id="Layer_3"/>
  <path class="st14" d="M23.6 1h4.8v16h-4.8V1zm8 0h4.8v16h-4.8V1z" id="Layer_4"/>
  <path class="st14" d="M50.3 2.6c-.3-.1-.6-.1-.8 0l-3.8 2.6L42.5 2l-1.1 1.2 14.3 14.6 1.1-1.2-1.6-1.6c1.1-1.4 1.8-3.1 1.8-5.1 0-3.3-2-6.1-4.8-7.3v1.6c1.9 1.1 3.2 3.3 3.2 5.7 0 1.5-.5 2.9-1.3 4l-1-1c.5-.9.8-2 .8-3 0-1.4-.6-3.2-1.6-4.1V12l-1.6-1.6v-7c0-.4-.2-.6-.4-.8zm-1.2 2.3v3.8l-2.3-2.3 2.3-1.5zm-7.2 9h2.9l4.6 3.1c.1.1.3.1.4.1.1 0 .3 0 .4-.1.3-.1.4-.4.4-.7v-1.5L49 13.2v1.6l-3.5-2.4c-.1-.1-.3-.1-.4-.1h-2.4V7.4h.7l-1.6-1.6c-.4 0-.7.4-.7.8v6.5c0 .5.4.8.8.8z" id="Layer_5"/>
  <g id="Layer_6">
    <path class="st14" d="M61.9 13.9h2.9l4.5 3.1c.2.2.5.2.8 0 .3-.1.4-.4.4-.7v-13c0-.4-.3-.8-.8-.8-.2 0-.3 0-.4.1l-4.5 3.1h-2.9c-.4 0-.8.4-.8.8V13c0 .6.4.9.8.9zm.8-6.5H65c.2 0 .3 0 .4-.1l3.4-2.4v10l-3.4-2.4c-.1-.1-.3-.1-.4-.1h-2.3v-5zm9.3 9.8c2.7-1.3 4.7-4 4.7-7.3s-2-6.1-4.7-7.4v1.6c1.9 1.1 3.1 3.3 3.1 5.7s-1.3 4.6-3.1 5.7v1.7z"/>
    <path class="st14" d="M72 5.8v8.1c.9-.9 1.6-2.6 1.6-4.1s-.7-3.1-1.6-4z"/>
  </g>
  <path class="st14" d="M93.2 6.8l3-3 2 2V.4h-5.3l2 2-3 3 1.3 1.4zm1.6 8.8l-2 2h5.3v-5.4l-2 2-3-3-1.3 1.4 3 3zm-8.5-4.4l-3 3-2-2v5.4h5.3l-2-2 3-3-1.3-1.4zm-1.7-8.8l2-2h-5.3v5.4l2-2 3 3 1.3-1.4-3-3z" id="Layer_7"/>
  <path class="st14" d="M102.7 17.6l3.1-3.1 2 2.1V11h-5.5l2 2.1-3.1 3.1 1.5 1.4zm14.1-17l-3.1 3.1-2-2.1v5.5h5.5l-2-2.1 3.1-3.1-1.5-1.3zM111.7 11v5.5l2-2.1 3.1 3.1 1.4-1.4-3.1-3.1 2-2.1h-5.4zm-3.9-9.4l-2 2.1-3.1-3.1-1.4 1.4 3.1 3.1-2 2.1h5.5V1.6z" id="Layer_8"/>
  <g id="Layer_9">
    <path class="st14" d="M138.2 1.7h-16.4c-.5 0-.9.4-.9.9v12.9c0 .5.4.9.9.9h16.4c.5 0 .9-.4.9-.9V2.6c0-.5-.4-.9-.9-.9zm-.9 13h-14.6V3.6h14.6v11.1z"/>
    <path class="st14" d="M125.4 12.8h3.7V11h-2.7V7.3h2.7V5.4h-3.7c-.5 0-.9.4-.9.9v5.6c0 .5.4.9.9.9zm6.4 0h3.7V11h-2.7V7.3h2.7V5.4h-3.7c-.5 0-.9.4-.9.9v5.6c0 .5.4.9.9.9z"/>
  </g>
  <path class="st15" d="M158.4 1.7H142c-.5 0-.9.4-.9.9v12.9c0 .5.4.9.9.9h16.4c.5 0 .9-.4.9-.9V2.6c0-.5-.4-.9-.9-.9zm-9.1 5.6h-2.7V11h2.7v1.9h-4.5V5.4h4.5v1.9zm6.4 0H153V11h2.7v1.9H151.1V5.4h4.5v1.9z" id="Layer_10"/>
  <path class="st14" d="M173 4.2l-3.2-2.5v1.6c-3.5 0-6.5 3-6.5 6.6 0 3.6 3 6.6 6.5 6.6s6.5-3 6.5-6.6h-1.6c0 2.7-2.2 4.9-4.9 4.9s-4.9-2.3-4.9-4.9 2.2-4.9 4.9-4.9v1.6l3.2-2.4z" id="Layer_11"/>
  <g id="Layer_12">
    <path class="st14" d="M186 3.2h10.7v1.9H186V3.2z"/>
    <path class="st14" d="M186 3.2h10.7v1.9H186V3.2zm0 5.6h10.7v1.9H186V8.8zm0 5.5h10.7v1.9H186v-1.9zm-3.6-11.1h1.8v1.9h-1.8V3.2z"/>
    <path class="st14" d="M182.4 3.2h1.8v1.9h-1.8V3.2zm0 5.6h1.8v1.9h-1.8V8.8zm0 5.5h1.8v1.9h-1.8v-1.9z"/>
  </g>
  <g id="Layer_13">
    <path class="st14" d="M121.4 38.8c-22.1 0-40.1 18-40.1 40.1s18 40.1 40.1 40.1 40.1-18 40.1-40.1-18-40.1-40.1-40.1zm0 72.2c-17.7 0-32.1-14.4-32.1-32.1s14.4-32.1 32.1-32.1 32.1 14.4 32.1 32.1-14.4 32.1-32.1 32.1z"/>
    <path class="st14" d="M113.4 94.9l24-16-24-16v32z"/>
  </g>
  <g id="Layer_13_copy">
    <path class="st15" d="M40.4 38.8C18.3 38.8.3 56.8.3 78.9s18 40.1 40.1 40.1 40.1-18 40.1-40.1-18-40.1-40.1-40.1zm0 72.2c-17.7 0-32-14.4-32-32.1s14.4-32.1 32.1-32.1 32.1 14.4 32.1 32.1S58.1 111 40.4 111z"/>
    <path class="st14" d="M32.4 94.9l24-16-24-16v32z"/>
  </g>
  <g id="Layer_15">
    <ellipse cx="201.6" cy="109.2" rx="7.7" ry="7.7" fill="#436daa"/>
    <ellipse class="st14" cx="201.6" cy="47.7" rx="7.7" ry="7.7"/>
    <ellipse cx="179.8" cy="100.2" rx="7.7" ry="7.7" fill="#4977ba"/>
    <ellipse cx="223.5" cy="56.7" rx="7.7" ry="7.7" fill="#314f7c"/>
    <ellipse cx="170.7" cy="78.5" rx="7.7" ry="7.7" fill="#4d7dc4"/>
    <ellipse cx="232.5" cy="78.5" rx="7.7" ry="7.7" fill="#345484"/>
    <ellipse cx="179.8" cy="56.7" rx="7.7" ry="7.7" fill="#5e92dd"/>
    <ellipse cx="223.5" cy="100.2" rx="7.7" ry="7.7" fill="#3a5e93"/>
  </g>
</svg>
