<svg id="BBB_logo_-_dark_bg" data-name="BBB logo - dark bg" xmlns="http://www.w3.org/2000/svg" viewBox="0 0 934.24 434.545"><defs><style>.cls-1{fill:#6089c6;}.cls-2{fill:#496b8e;}.cls-3,.cls-4{fill:none;}.cls-4{stroke:#2eabe2;stroke-linecap:round;stroke-linejoin:round;stroke-width:0;}.cls-5{fill:#2eabe2;}.cls-6{fill:#fff;}</style></defs><title>BBB-Logo-New-darkbg</title><polyline class="cls-1" points="125.304 0 97.361 10.394 97.367 48.878 125.313 38.175"/><polyline class="cls-2" points="125.313 38.175 152.808 48.87 152.808 48.87 152.8 10.384 125.304 0"/><polygon class="cls-3" points="60.065 105.811 23.105 115.639 23.116 163.542 60.073 157.454 60.065 105.811"/><polygon class="cls-3" points="106.261 94.411 64.687 104.629 64.696 156.469 106.272 149.783 106.261 94.411"/><line class="cls-4" x1="249.539" y1="374.408" x2="249.539" y2="374.408"/><polygon class="cls-5" points="127.857 45.844 128.017 45.9 128.016 45.713 127.857 45.844"/><path class="cls-2" d="M248.527,106.167h0.957l0-18h-0.956L129.353,46l0.079,388.546,120.36-44.559,0.186-.287V374.408l-9.459.006-0.167-268.1Zm-63.714,50.277-41.578-6.668L143.222,94.4,184.8,104.6Zm41.158,7.056-36.747-6.075-0.116-51.637,36.858,9.807Z"/><polygon class="cls-5" points="120.947 45.961 121.279 45.844 120.947 45.711 120.947 45.961"/><path class="cls-1" d="M0,88.023L0.006,106.5H0.789l8.457-.142L9.3,374.181H0.059l0,15.429-0.034.332,120.162,44.518L120.11,45.943,0.778,88.012Zm54.978,130.25-27,1.623-0.005-42.8,27-3.934Zm9.709-113.643,41.574-10.218,0.011,55.372L64.7,156.469ZM23.105,115.639l36.959-9.828,0.009,51.643-36.957,6.088Z"/><path class="cls-6" d="M262.85,120.28h-6.959a0.759,0.759,0,0,1-.76-0.76v-1.16a0.759,0.759,0,0,1,.76-0.76h16.958a0.759,0.759,0,0,1,.76.76v1.16a0.759,0.759,0,0,1-.76.76h-6.959v24.556a0.786,0.786,0,0,1-.76.76h-1.52a0.786,0.786,0,0,1-.76-0.76V120.28Z"/><path class="cls-6" d="M277.01,118.361a0.787,0.787,0,0,1,.76-0.76h1.56a0.759,0.759,0,0,1,.76.76v11.678h16.237V118.361a0.759,0.759,0,0,1,.76-0.76h1.56a0.786,0.786,0,0,1,.76.76v26.476a0.786,0.786,0,0,1-.76.76h-1.56a0.759,0.759,0,0,1-.76-0.76V132.718H280.09v12.118a0.759,0.759,0,0,1-.76.76h-1.56a0.787,0.787,0,0,1-.76-0.76V118.361Z"/><path class="cls-6" d="M305.77,118.361a0.76,0.76,0,0,1,.76-0.76h15.757a0.759,0.759,0,0,1,.76.76v1.16a0.759,0.759,0,0,1-.76.76H308.849v9.758h11.478a0.787,0.787,0,0,1,.76.76v1.16a0.76,0.76,0,0,1-.76.76H308.849v10.2h13.438a0.759,0.759,0,0,1,.76.76v1.16a0.759,0.759,0,0,1-.76.76H306.53a0.76,0.76,0,0,1-.76-0.76V118.361Z"/><path class="cls-6" d="M255.247,162.093a1.26,1.26,0,0,1,1.206-1.273h15.008a23.451,23.451,0,1,1,0,46.9H256.453a1.26,1.26,0,0,1-1.206-1.273V162.093Zm15.143,41c10.988,0,18.961-7.839,18.961-18.895,0-10.988-7.973-18.827-18.961-18.827H260.34V203.1h10.05Z"/><path class="cls-6" d="M324.258,160.151A24.12,24.12,0,1,1,300.2,184.338,24.077,24.077,0,0,1,324.258,160.151Zm0,43.551a19.431,19.431,0,1,0-19.364-19.363A19.474,19.474,0,0,0,324.258,203.7Z"/><path class="cls-6" d="M377.723,160.151c6.767,0,11.658,2.345,16.214,6.231a1.3,1.3,0,0,1,.067,1.876l-1.809,1.809c-0.536.67-1.072,0.6-1.742-.067a20.3,20.3,0,0,0-12.8-5.025c-10.586,0-18.693,8.912-18.693,19.3,0,10.318,8.107,19.229,18.693,19.229,5.829,0,9.246-2.345,12.8-5.025a1.263,1.263,0,0,1,1.608-.2l2.01,1.809a1.276,1.276,0,0,1-.067,1.809,23,23,0,0,1-16.281,6.5A24.12,24.12,0,1,1,377.723,160.151Z"/><path class="cls-6" d="M411.959,165.31H400.3a1.272,1.272,0,0,1-1.273-1.273v-1.943a1.272,1.272,0,0,1,1.273-1.273H428.71a1.272,1.272,0,0,1,1.273,1.273v1.943a1.272,1.272,0,0,1-1.273,1.273H417.052v41.139a1.318,1.318,0,0,1-1.273,1.273h-2.546a1.318,1.318,0,0,1-1.273-1.273V165.31Z"/><path class="cls-6" d="M455.51,160.151a24.12,24.12,0,1,1-24.054,24.188A24.077,24.077,0,0,1,455.51,160.151Zm0,43.551a19.431,19.431,0,1,0-19.364-19.363A19.474,19.474,0,0,0,455.51,203.7Z"/><path class="cls-6" d="M485.859,162.093a1.272,1.272,0,0,1,1.273-1.273h17.354a14.4,14.4,0,0,1,14.605,14.271c0,6.165-4.087,11.323-9.916,13.668l9.18,17.019a1.268,1.268,0,0,1-1.14,1.943H513.8a1.147,1.147,0,0,1-1.071-.6l-8.912-17.755h-12.8v17.085a1.318,1.318,0,0,1-1.273,1.273h-2.612a1.272,1.272,0,0,1-1.273-1.273V162.093Zm18.292,22.848a9.615,9.615,0,1,0,0-19.229h-13v19.229h13Z"/><path class="cls-6" d="M537.315,162.428a1.168,1.168,0,0,1,1.206-1.608h2.813a1.376,1.376,0,0,1,1.206.938l9.313,34.707h0.268l11.189-35.578a1.139,1.139,0,0,1,1.139-.737h1.206a1.206,1.206,0,0,1,1.14.737l11.39,35.578h0.269l9.112-34.707a1.376,1.376,0,0,1,1.206-.938h2.813a1.168,1.168,0,0,1,1.206,1.608l-12.663,45.025a1.287,1.287,0,0,1-1.206.938H577.85a1.361,1.361,0,0,1-1.139-.737L565.12,171.406h-0.335L553.4,207.654a1.361,1.361,0,0,1-1.14.737h-1.071a1.287,1.287,0,0,1-1.206-.938Z"/><path class="cls-6" d="M600.227,162.093a1.318,1.318,0,0,1,1.273-1.273h2.613a1.272,1.272,0,0,1,1.272,1.273v19.564h27.2V162.093a1.272,1.272,0,0,1,1.273-1.273h2.613a1.317,1.317,0,0,1,1.272,1.273v44.355a1.317,1.317,0,0,1-1.272,1.273h-2.613a1.272,1.272,0,0,1-1.273-1.273v-20.3h-27.2v20.3a1.272,1.272,0,0,1-1.272,1.273H601.5a1.318,1.318,0,0,1-1.273-1.273V162.093Z"/><path class="cls-6" d="M668.032,160.151a24.12,24.12,0,1,1-24.054,24.188A24.077,24.077,0,0,1,668.032,160.151Zm0,43.551a19.431,19.431,0,1,0-19.363-19.363A19.474,19.474,0,0,0,668.032,203.7Z"/><path class="cls-1" d="M255.373,224.849a2.089,2.089,0,0,1,2.09-2.09h25.63c12.98,0,23.65,8.91,23.65,20.459,0,8.471-7.59,14.631-12.76,17.381,5.83,2.42,14.74,7.811,14.74,17.93,0,12.32-10.89,21.23-23.98,21.23h-27.28a2.089,2.089,0,0,1-2.09-2.09v-72.82ZM281.114,254a7.843,7.843,0,0,0,7.7-7.92,7.468,7.468,0,0,0-7.7-7.48h-8.58V254h8.58Zm1.43,30.029a7.981,7.981,0,0,0,7.92-8.029c0-4.4-4.73-7.7-9.02-7.7h-8.91v15.729h10.01Z"/><path class="cls-1" d="M319.943,224.849a2.164,2.164,0,0,1,2.09-2.09h13.2a2.164,2.164,0,0,1,2.09,2.09v72.82a2.164,2.164,0,0,1-2.09,2.09h-13.2a2.164,2.164,0,0,1-2.09-2.09v-72.82Z"/><path class="cls-1" d="M387.482,221.769a42.468,42.468,0,0,1,26.84,10.34,1.93,1.93,0,0,1,.22,2.971l-8.69,9.239a2.328,2.328,0,0,1-2.97.11c-4.18-3.85-9.02-5.28-14.41-5.28-11.99,0-21.67,10.12-21.67,22.22a21.925,21.925,0,0,0,21.78,21.891,25.988,25.988,0,0,0,9.79-1.76v-6.381h-6.93a2,2,0,0,1-2.09-1.979v-10.89a2.022,2.022,0,0,1,2.09-2.09h22.11a2.067,2.067,0,0,1,1.98,2.09l0.11,29.59a2.716,2.716,0,0,1-.88,1.76,55.579,55.579,0,0,1-27.28,7.15A39.49,39.49,0,1,1,387.482,221.769Z"/><path class="cls-1" d="M449.521,224.849a2.089,2.089,0,0,1,2.09-2.09h25.63c12.979,0,23.649,8.91,23.649,20.459,0,8.471-7.59,14.631-12.76,17.381,5.83,2.42,14.74,7.811,14.74,17.93,0,12.32-10.891,21.23-23.98,21.23H451.611a2.089,2.089,0,0,1-2.09-2.09v-72.82ZM475.26,254a7.843,7.843,0,0,0,7.7-7.92,7.468,7.468,0,0,0-7.7-7.48h-8.58V254h8.58Zm1.43,30.029A7.981,7.981,0,0,0,484.61,276c0-4.4-4.729-7.7-9.02-7.7h-8.91v15.729H476.69Z"/><path class="cls-1" d="M514.09,224.849a2.089,2.089,0,0,1,2.09-2.09H529.27a2.164,2.164,0,0,1,2.09,2.09v58.74h26.18a2.089,2.089,0,0,1,2.09,2.09v11.99a2.089,2.089,0,0,1-2.09,2.09h-41.36a2.089,2.089,0,0,1-2.09-2.09v-72.82Z"/><path class="cls-1" d="M565.569,224.849a2.163,2.163,0,0,1,2.09-2.09h13.53a2.089,2.089,0,0,1,2.09,2.09V269.4c0,7.7,5.72,13.86,13.53,13.86a13.574,13.574,0,0,0,13.75-13.86v-44.55a2.089,2.089,0,0,1,2.09-2.09h13.53a2.164,2.164,0,0,1,2.09,2.09v45.43c0,16.721-14.08,30.58-31.46,30.58-17.271,0-31.24-13.859-31.24-30.58v-45.43Z"/><path class="cls-1" d="M643.228,224.849a2.089,2.089,0,0,1,2.09-2.09h45.54a2.089,2.089,0,0,1,2.091,2.09v11.99a2.089,2.089,0,0,1-2.091,2.09h-30.47v13.64h25.08a2.163,2.163,0,0,1,2.09,2.091v11.989a2.089,2.089,0,0,1-2.09,2.091h-25.08v14.85h30.47a2.089,2.089,0,0,1,2.091,2.09v11.99a2.089,2.089,0,0,1-2.091,2.09h-45.54a2.089,2.089,0,0,1-2.09-2.09v-72.82Z"/><path class="cls-1" d="M726.5,224.849a2.089,2.089,0,0,1,2.09-2.09h25.631c12.979,0,23.649,8.91,23.649,20.459,0,8.471-7.59,14.631-12.76,17.381,5.83,2.42,14.74,7.811,14.74,17.93,0,12.32-10.891,21.23-23.98,21.23h-27.28a2.089,2.089,0,0,1-2.09-2.09v-72.82ZM752.237,254a7.843,7.843,0,0,0,7.7-7.92,7.468,7.468,0,0,0-7.7-7.48h-8.58V254h8.58Zm1.43,30.029a7.981,7.981,0,0,0,7.92-8.029c0-4.4-4.729-7.7-9.02-7.7h-8.91v15.729h10.01Z"/><path class="cls-1" d="M824.947,221.658a39.6,39.6,0,1,1-39.49,39.71A39.529,39.529,0,0,1,824.947,221.658Zm0,61.6a22,22,0,1,0-21.89-21.891A22.043,22.043,0,0,0,824.947,283.259Z"/><path class="cls-1" d="M890.287,260.269l-22.22-34.43a1.978,1.978,0,0,1,1.869-3.08H886a2.372,2.372,0,0,1,1.76.99l12.65,20.459h0.109l12.87-20.459a2.187,2.187,0,0,1,1.761-.99h16.06c1.87,0,2.86,1.649,1.87,3.08l-22.33,34.43,23.1,36.41a1.922,1.922,0,0,1-1.761,3.08H916.8a2.448,2.448,0,0,1-1.87-.99l-14.41-22.22H900.3l-14.08,22.22a2.41,2.41,0,0,1-1.87.99h-15.29c-1.87,0-2.859-1.65-1.87-3.08Z"/><path class="cls-6" d="M255.08,315.628a1.273,1.273,0,0,1,1.273-1.273h14.808a14.941,14.941,0,1,1,.067,29.883H260.173v15.745a1.318,1.318,0,0,1-1.273,1.273h-2.546a1.272,1.272,0,0,1-1.273-1.273V315.628Zm15.746,23.651a10.237,10.237,0,0,0,10.184-10.251c0-5.428-4.69-9.581-10.184-9.581H260.173v19.832h10.653Z"/><path class="cls-6" d="M313.973,313.685a24.121,24.121,0,1,1-24.054,24.188A24.077,24.077,0,0,1,313.973,313.685Zm0,43.551a19.43,19.43,0,1,0-19.364-19.363A19.473,19.473,0,0,0,313.973,357.236Z"/><path class="cls-6" d="M343.654,315.628a1.26,1.26,0,0,1,1.206-1.273h15.008a23.451,23.451,0,1,1,0,46.9H344.86a1.26,1.26,0,0,1-1.206-1.273V315.628Zm15.143,41c10.988,0,18.961-7.839,18.961-18.895,0-10.988-7.973-18.827-18.961-18.827h-10.05v37.722H358.8Z"/><path class="cls-6" d="M412.8,313.685c6.767,0,11.658,2.346,16.214,6.231a1.3,1.3,0,0,1,.067,1.876L427.27,323.6c-0.536.67-1.072,0.6-1.742-.066a20.3,20.3,0,0,0-12.8-5.025c-10.586,0-18.693,8.911-18.693,19.3,0,10.318,8.107,19.229,18.693,19.229,5.829,0,9.246-2.346,12.8-5.025a1.263,1.263,0,0,1,1.608-.2l2.01,1.81a1.276,1.276,0,0,1-.067,1.809,23,23,0,0,1-16.281,6.5A24.121,24.121,0,1,1,412.8,313.685Z"/><path class="cls-6" d="M432.7,359.514l20.369-45.092a1.2,1.2,0,0,1,1.139-.737h0.67a1.2,1.2,0,0,1,1.139.737l20.235,45.092a1.183,1.183,0,0,1-1.14,1.742h-2.68a1.232,1.232,0,0,1-1.139-.737l-4.959-11.055H442.544l-4.891,11.055a1.233,1.233,0,0,1-1.139.737h-2.68A1.183,1.183,0,0,1,432.7,359.514Zm31.826-14.2c-3.283-7.3-6.5-14.673-9.782-21.977H454.2l-9.782,21.977h20.1Z"/><path class="cls-6" d="M479.864,354.221c0.335-.4.67-0.871,1-1.273,0.67-.87,1.407-1.406,2.345-0.6,0.469,0.4,5.36,5.092,11.323,5.092,5.428,0,8.979-3.417,8.979-7.37,0-4.623-4.021-7.37-11.726-10.586C484.42,336.265,480,333.249,480,325.612c0-4.556,3.618-11.927,14.271-11.927a21.912,21.912,0,0,1,11.457,3.418,1.491,1.491,0,0,1,.4,2.277c-0.269.4-.536,0.871-0.8,1.273a1.516,1.516,0,0,1-2.345.6c-0.469-.268-4.69-3.082-8.777-3.082-7.1,0-9.246,4.556-9.246,7.37,0,4.489,3.417,7.1,9.045,9.447,9.046,3.686,14.875,7.1,14.875,14.874,0,6.969-6.634,12.061-14.473,12.061a21.847,21.847,0,0,1-14.138-5.427A1.471,1.471,0,0,1,479.864,354.221Z"/><path class="cls-6" d="M524.886,318.845H513.228a1.273,1.273,0,0,1-1.272-1.273v-1.943a1.273,1.273,0,0,1,1.272-1.273h28.409a1.272,1.272,0,0,1,1.272,1.273v1.943a1.272,1.272,0,0,1-1.272,1.273H529.979v41.138a1.318,1.318,0,0,1-1.273,1.273H526.16a1.318,1.318,0,0,1-1.273-1.273V318.845Z"/><polyline class="cls-1" points="125.304 0 97.361 10.394 97.367 48.878 125.313 38.175"/><polyline class="cls-2" points="125.313 38.175 152.808 48.87 152.808 48.87 152.8 10.384 125.304 0"/><polyline class="cls-1" points="125.304 0 97.361 10.394 97.367 48.878 125.313 38.175"/><polyline class="cls-2" points="125.313 38.175 152.808 48.87 152.808 48.87 152.8 10.384 125.304 0"/></svg>