<svg id="BBB_logo_-_dark_bg" data-name="BBB logo - dark bg" xmlns="http://www.w3.org/2000/svg" viewBox="0 0 934.24 434.545"><defs><style>.cls-1{fill:#6089c6}.cls-2{fill:#496b8e}.cls-3,.cls-4{fill:none}.cls-4{stroke:#2eabe2;stroke-linecap:round;stroke-linejoin:round;stroke-width:0}.cls-5{fill:#2eabe2}.cls-6{fill:#fff}</style></defs><title>BBB-Logo-New-darkbg</title><path class="cls-1" d="M125.304 0L97.361 10.394l.006 38.484 27.946-10.703"/><path class="cls-2" d="M125.313 38.175l27.495 10.695-.008-38.486L125.304 0"/><path class="cls-3" d="M60.065 105.811l-36.96 9.828.011 47.903 36.957-6.088-.008-51.643zm46.196-11.4l-41.574 10.218.009 51.84 41.576-6.686-.011-55.372z"/><path class="cls-5" d="M127.857 45.844l.16.056-.001-.187-.159.131z"/><path class="cls-2" d="M248.527 106.167h.957v-18h-.956L129.353 46l.079 388.546 120.36-44.559.186-.287v-15.292l-9.459.006-.167-268.1zm-63.714 50.277l-41.578-6.668-.013-55.376 41.578 10.2zm41.158 7.056l-36.747-6.075-.116-51.637 36.858 9.807z"/><path class="cls-5" d="M120.947 45.961l.332-.117-.332-.133v.25z"/><path class="cls-1" d="M0 88.023L.006 106.5h.783l8.457-.142.054 267.823H.059v15.429l-.034.332 120.162 44.518-.077-388.517L.778 88.012zm54.978 130.25l-27 1.623-.005-42.8 27-3.934zm9.709-113.643l41.574-10.218.011 55.372-41.572 6.685zm-41.582 11.009l36.959-9.828.009 51.643-36.957 6.088z"/><path class="cls-6" d="M262.85 120.28h-6.959a.759.759 0 0 1-.76-.76v-1.16a.759.759 0 0 1 .76-.76h16.958a.759.759 0 0 1 .76.76v1.16a.759.759 0 0 1-.76.76h-6.959v24.556a.786.786 0 0 1-.76.76h-1.52a.786.786 0 0 1-.76-.76V120.28zm14.16-1.919a.787.787 0 0 1 .76-.76h1.56a.759.759 0 0 1 .76.76v11.678h16.237v-11.678a.759.759 0 0 1 .76-.76h1.56a.786.786 0 0 1 .76.76v26.476a.786.786 0 0 1-.76.76h-1.56a.759.759 0 0 1-.76-.76v-12.119H280.09v12.118a.759.759 0 0 1-.76.76h-1.56a.787.787 0 0 1-.76-.76v-26.475zm28.76 0a.76.76 0 0 1 .76-.76h15.757a.759.759 0 0 1 .76.76v1.16a.759.759 0 0 1-.76.76h-13.438v9.758h11.478a.787.787 0 0 1 .76.76v1.16a.76.76 0 0 1-.76.76h-11.478v10.2h13.438a.759.759 0 0 1 .76.76v1.16a.759.759 0 0 1-.76.76H306.53a.76.76 0 0 1-.76-.76v-26.478zm-50.523 43.732a1.26 1.26 0 0 1 1.206-1.273h15.008a23.451 23.451 0 1 1 0 46.9h-15.008a1.26 1.26 0 0 1-1.206-1.273v-44.354zm15.143 41c10.988 0 18.961-7.839 18.961-18.895 0-10.988-7.973-18.827-18.961-18.827h-10.05V203.1h10.05zm53.868-42.942a24.12 24.12 0 1 1-24.058 24.187 24.077 24.077 0 0 1 24.058-24.187zm0 43.551a19.431 19.431 0 1 0-19.364-19.363 19.474 19.474 0 0 0 19.364 19.361zm53.465-43.551c6.767 0 11.658 2.345 16.214 6.231a1.3 1.3 0 0 1 .067 1.876l-1.809 1.809c-.536.67-1.072.6-1.742-.067a20.3 20.3 0 0 0-12.8-5.025c-10.586 0-18.693 8.912-18.693 19.3 0 10.318 8.107 19.229 18.693 19.229 5.829 0 9.246-2.345 12.8-5.025a1.263 1.263 0 0 1 1.608-.2l2.01 1.809a1.276 1.276 0 0 1-.067 1.809 23 23 0 0 1-16.281 6.5 24.12 24.12 0 1 1 0-48.246zm34.236 5.159H400.3a1.272 1.272 0 0 1-1.273-1.273v-1.943a1.272 1.272 0 0 1 1.273-1.273h28.41a1.272 1.272 0 0 1 1.273 1.273v1.943a1.272 1.272 0 0 1-1.273 1.273h-11.658v41.139a1.318 1.318 0 0 1-1.273 1.273h-2.546a1.318 1.318 0 0 1-1.273-1.273V165.31zm43.551-5.159a24.12 24.12 0 1 1-24.054 24.188 24.077 24.077 0 0 1 24.054-24.188zm0 43.551a19.431 19.431 0 1 0-19.364-19.363A19.474 19.474 0 0 0 455.51 203.7zm30.349-41.609a1.272 1.272 0 0 1 1.273-1.273h17.354a14.4 14.4 0 0 1 14.605 14.271c0 6.165-4.087 11.323-9.916 13.668l9.18 17.019a1.268 1.268 0 0 1-1.14 1.943H513.8a1.147 1.147 0 0 1-1.071-.6l-8.912-17.755h-12.8v17.085a1.318 1.318 0 0 1-1.273 1.273h-2.612a1.272 1.272 0 0 1-1.273-1.273v-44.358zm18.292 22.848a9.615 9.615 0 1 0 0-19.229h-13v19.229h13zm33.164-22.513a1.168 1.168 0 0 1 1.206-1.608h2.813a1.376 1.376 0 0 1 1.206.938l9.313 34.707h.268l11.189-35.578a1.139 1.139 0 0 1 1.139-.737h1.206a1.206 1.206 0 0 1 1.14.737l11.39 35.578h.269l9.112-34.707a1.376 1.376 0 0 1 1.206-.938h2.813a1.168 1.168 0 0 1 1.206 1.608l-12.663 45.025a1.287 1.287 0 0 1-1.206.938h-1.072a1.361 1.361 0 0 1-1.139-.737l-11.591-36.248h-.335L553.4 207.654a1.361 1.361 0 0 1-1.14.737h-1.071a1.287 1.287 0 0 1-1.206-.938zm62.912-.335a1.318 1.318 0 0 1 1.273-1.273h2.613a1.272 1.272 0 0 1 1.272 1.273v19.564h27.2v-19.564a1.272 1.272 0 0 1 1.273-1.273h2.613a1.317 1.317 0 0 1 1.272 1.273v44.355a1.317 1.317 0 0 1-1.272 1.273h-2.613a1.272 1.272 0 0 1-1.273-1.273v-20.3h-27.2v20.3a1.272 1.272 0 0 1-1.272 1.273H601.5a1.318 1.318 0 0 1-1.273-1.273v-44.355zm67.805-1.942a24.12 24.12 0 1 1-24.054 24.188 24.077 24.077 0 0 1 24.054-24.188zm0 43.551a19.431 19.431 0 1 0-19.363-19.363 19.474 19.474 0 0 0 19.363 19.361z"/><path class="cls-1" d="M255.373 224.849a2.089 2.089 0 0 1 2.09-2.09h25.63c12.98 0 23.65 8.91 23.65 20.459 0 8.471-7.59 14.631-12.76 17.381 5.83 2.42 14.74 7.811 14.74 17.93 0 12.32-10.89 21.23-23.98 21.23h-27.28a2.089 2.089 0 0 1-2.09-2.09v-72.82zM281.114 254a7.843 7.843 0 0 0 7.7-7.92 7.468 7.468 0 0 0-7.7-7.48h-8.58V254h8.58zm1.43 30.029a7.981 7.981 0 0 0 7.92-8.029c0-4.4-4.73-7.7-9.02-7.7h-8.91v15.729h10.01zm37.399-59.18a2.164 2.164 0 0 1 2.09-2.09h13.2a2.164 2.164 0 0 1 2.09 2.09v72.82a2.164 2.164 0 0 1-2.09 2.09h-13.2a2.164 2.164 0 0 1-2.09-2.09v-72.82zm67.539-3.08a42.468 42.468 0 0 1 26.84 10.34 1.93 1.93 0 0 1 .22 2.971l-8.69 9.239a2.328 2.328 0 0 1-2.97.11c-4.18-3.85-9.02-5.28-14.41-5.28-11.99 0-21.67 10.12-21.67 22.22a21.925 21.925 0 0 0 21.78 21.891 25.988 25.988 0 0 0 9.79-1.76v-6.381h-6.93a2 2 0 0 1-2.09-1.979v-10.89a2.022 2.022 0 0 1 2.09-2.09h22.11a2.067 2.067 0 0 1 1.98 2.09l.11 29.59a2.716 2.716 0 0 1-.88 1.76 55.579 55.579 0 0 1-27.28 7.15 39.49 39.49 0 1 1 0-78.981zm62.039 3.08a2.089 2.089 0 0 1 2.09-2.09h25.63c12.979 0 23.649 8.91 23.649 20.459 0 8.471-7.59 14.631-12.76 17.381 5.83 2.42 14.74 7.811 14.74 17.93 0 12.32-10.891 21.23-23.98 21.23h-27.279a2.089 2.089 0 0 1-2.09-2.09v-72.82zM475.26 254a7.843 7.843 0 0 0 7.7-7.92 7.468 7.468 0 0 0-7.7-7.48h-8.58V254h8.58zm1.43 30.029a7.981 7.981 0 0 0 7.92-8.029c0-4.4-4.729-7.7-9.02-7.7h-8.91v15.729h10.01zm37.4-59.18a2.089 2.089 0 0 1 2.09-2.09h13.09a2.164 2.164 0 0 1 2.09 2.09v58.74h26.18a2.089 2.089 0 0 1 2.09 2.09v11.99a2.089 2.089 0 0 1-2.09 2.09h-41.36a2.089 2.089 0 0 1-2.09-2.09v-72.82zm51.479 0a2.163 2.163 0 0 1 2.09-2.09h13.53a2.089 2.089 0 0 1 2.09 2.09V269.4c0 7.7 5.72 13.86 13.53 13.86a13.574 13.574 0 0 0 13.75-13.86v-44.55a2.089 2.089 0 0 1 2.09-2.09h13.53a2.164 2.164 0 0 1 2.09 2.09v45.43c0 16.721-14.08 30.58-31.46 30.58-17.271 0-31.24-13.859-31.24-30.58v-45.43zm77.659 0a2.089 2.089 0 0 1 2.09-2.09h45.54a2.089 2.089 0 0 1 2.091 2.09v11.99a2.089 2.089 0 0 1-2.091 2.09h-30.47v13.64h25.08a2.163 2.163 0 0 1 2.09 2.091v11.989a2.089 2.089 0 0 1-2.09 2.091h-25.08v14.85h30.47a2.089 2.089 0 0 1 2.091 2.09v11.99a2.089 2.089 0 0 1-2.091 2.09h-45.54a2.089 2.089 0 0 1-2.09-2.09v-72.82zm83.272 0a2.089 2.089 0 0 1 2.09-2.09h25.631c12.979 0 23.649 8.91 23.649 20.459 0 8.471-7.59 14.631-12.76 17.381 5.83 2.42 14.74 7.811 14.74 17.93 0 12.32-10.891 21.23-23.98 21.23h-27.28a2.089 2.089 0 0 1-2.09-2.09v-72.82zM752.237 254a7.843 7.843 0 0 0 7.7-7.92 7.468 7.468 0 0 0-7.7-7.48h-8.58V254h8.58zm1.43 30.029a7.981 7.981 0 0 0 7.92-8.029c0-4.4-4.729-7.7-9.02-7.7h-8.91v15.729h10.01zm71.28-62.371a39.6 39.6 0 1 1-39.49 39.71 39.529 39.529 0 0 1 39.49-39.71zm0 61.6a22 22 0 1 0-21.89-21.891 22.043 22.043 0 0 0 21.89 21.892zm65.34-22.989l-22.22-34.43a1.978 1.978 0 0 1 1.869-3.08H886a2.372 2.372 0 0 1 1.76.99l12.65 20.459h.109l12.87-20.459a2.187 2.187 0 0 1 1.761-.99h16.06c1.87 0 2.86 1.649 1.87 3.08l-22.33 34.43 23.1 36.41a1.922 1.922 0 0 1-1.761 3.08H916.8a2.448 2.448 0 0 1-1.87-.99l-14.41-22.22h-.22l-14.08 22.22a2.41 2.41 0 0 1-1.87.99h-15.29c-1.87 0-2.859-1.65-1.87-3.08z"/><path class="cls-6" d="M255.08 315.628a1.273 1.273 0 0 1 1.273-1.273h14.808a14.941 14.941 0 1 1 .067 29.883h-11.055v15.745a1.318 1.318 0 0 1-1.273 1.273h-2.546a1.272 1.272 0 0 1-1.273-1.273v-44.355zm15.746 23.651a10.237 10.237 0 0 0 10.184-10.251c0-5.428-4.69-9.581-10.184-9.581h-10.653v19.832h10.653zm43.147-25.594a24.121 24.121 0 1 1-24.054 24.188 24.077 24.077 0 0 1 24.054-24.188zm0 43.551a19.43 19.43 0 1 0-19.364-19.363 19.473 19.473 0 0 0 19.364 19.363zm29.681-41.608a1.26 1.26 0 0 1 1.206-1.273h15.008a23.451 23.451 0 1 1 0 46.9H344.86a1.26 1.26 0 0 1-1.206-1.273v-44.354zm15.143 41c10.988 0 18.961-7.839 18.961-18.895 0-10.988-7.973-18.827-18.961-18.827h-10.05v37.722H358.8zm54.003-42.943c6.767 0 11.658 2.346 16.214 6.231a1.3 1.3 0 0 1 .067 1.876l-1.811 1.808c-.536.67-1.072.6-1.742-.066a20.3 20.3 0 0 0-12.8-5.025c-10.586 0-18.693 8.911-18.693 19.3 0 10.318 8.107 19.229 18.693 19.229 5.829 0 9.246-2.346 12.8-5.025a1.263 1.263 0 0 1 1.608-.2l2.01 1.81a1.276 1.276 0 0 1-.067 1.809 23 23 0 0 1-16.281 6.5 24.121 24.121 0 1 1 .002-48.247zm19.9 45.829l20.369-45.092a1.2 1.2 0 0 1 1.139-.737h.67a1.2 1.2 0 0 1 1.139.737l20.235 45.092a1.183 1.183 0 0 1-1.14 1.742h-2.68a1.232 1.232 0 0 1-1.139-.737l-4.959-11.055h-23.79l-4.891 11.055a1.233 1.233 0 0 1-1.139.737h-2.68a1.183 1.183 0 0 1-1.134-1.742zm31.826-14.2c-3.283-7.3-6.5-14.673-9.782-21.977h-.544l-9.782 21.977h20.1zm15.338 8.907c.335-.4.67-.871 1-1.273.67-.87 1.407-1.406 2.345-.6.469.4 5.36 5.092 11.323 5.092 5.428 0 8.979-3.417 8.979-7.37 0-4.623-4.021-7.37-11.726-10.586-7.365-3.219-11.785-6.235-11.785-13.872 0-4.556 3.618-11.927 14.271-11.927a21.912 21.912 0 0 1 11.457 3.418 1.491 1.491 0 0 1 .4 2.277c-.269.4-.536.871-.8 1.273a1.516 1.516 0 0 1-2.345.6c-.469-.268-4.69-3.082-8.777-3.082-7.1 0-9.246 4.556-9.246 7.37 0 4.489 3.417 7.1 9.045 9.447 9.046 3.686 14.875 7.1 14.875 14.874 0 6.969-6.634 12.061-14.473 12.061a21.847 21.847 0 0 1-14.138-5.427 1.471 1.471 0 0 1-.405-2.275zm45.022-35.376h-11.658a1.273 1.273 0 0 1-1.272-1.273v-1.943a1.273 1.273 0 0 1 1.272-1.273h28.409a1.272 1.272 0 0 1 1.272 1.273v1.943a1.272 1.272 0 0 1-1.272 1.273h-11.658v41.138a1.318 1.318 0 0 1-1.273 1.273h-2.546a1.318 1.318 0 0 1-1.273-1.273v-41.138z"/><path class="cls-1" d="M125.304 0L97.361 10.394l.006 38.484 27.946-10.703"/><path class="cls-2" d="M125.313 38.175l27.495 10.695-.008-38.486L125.304 0"/><path class="cls-1" d="M125.304 0L97.361 10.394l.006 38.484 27.946-10.703"/><path class="cls-2" d="M125.313 38.175l27.495 10.695-.008-38.486L125.304 0"/></svg>