<svg height="99" width="207" xmlns="http://www.w3.org/2000/svg"><g fill="none" fill-rule="evenodd"><path d="M27.695 0L21.52 2.35l.002 8.697 6.176-2.42" fill="#6089c6" fill-rule="nonzero"/><path d="M27.697 8.628l6.078 2.417-.002-8.698L27.695 0" fill="#496b8e" fill-rule="nonzero"/><path d="M13.276 23.914l-8.17 2.22.003 10.827 8.169-1.376zm10.21-2.577l-9.188 2.31.002 11.715 9.189-1.51z"/><g fill-rule="nonzero"><path d="M28.26 10.36l.036.013v-.042z" fill="#2eabe2"/><path d="M54.931 23.994h.211v-4.068h-.21l-26.342-9.53.018 87.813 26.603-10.07.04-.066v-3.456l-2.09.002-.037-60.592zM40.849 35.357l-9.19-1.507-.003-12.515 9.19 2.305zm9.097 1.595l-8.123-1.373-.025-11.67 8.146 2.216z" fill="#496b8e"/><path d="M26.732 10.387l.075-.026-.075-.03z" fill="#2eabe2"/><path d="M0 19.893l.001 4.176h.173l1.87-.032.012 60.53H.013v3.486l-.007.075L26.564 98.19l-.017-87.806L.172 19.891zM12.152 49.33l-5.968.367-.001-9.673 5.967-.889zm2.146-25.683l9.188-2.31.003 12.515-9.189 1.51zm-9.191 2.488l8.169-2.221.002 11.671-8.169 1.376z" fill="#6089c6"/><path d="M58.097 27.184h-1.538c-.045 0-.088-.018-.12-.05s-.048-.077-.048-.122v-.262c0-.046.017-.09.049-.122a.166.166 0 0 1 .119-.05h3.748a.169.169 0 0 1 .168.172v.262a.172.172 0 0 1-.168.172h-1.538v5.55a.176.176 0 0 1-.168.171h-.336a.176.176 0 0 1-.168-.172zm3.129-.434a.176.176 0 0 1 .168-.172h.345a.17.17 0 0 1 .12.05c.03.033.048.076.048.122v2.64h3.589v-2.64c0-.046.018-.09.05-.122a.166.166 0 0 1 .118-.05h.345a.176.176 0 0 1 .168.172v5.984a.176.176 0 0 1-.168.171h-.345a.166.166 0 0 1-.119-.05.174.174 0 0 1-.049-.121v-2.74h-3.589v2.74c0 .045-.017.089-.049.12s-.074.051-.119.051h-.345a.176.176 0 0 1-.168-.172zm6.357 0c0-.046.018-.09.05-.122a.166.166 0 0 1 .118-.05h3.483a.169.169 0 0 1 .168.172v.262c0 .046-.018.09-.05.122s-.074.05-.118.05h-2.97v2.205H70.8a.176.176 0 0 1 .168.172v.262a.17.17 0 0 1-.168.172h-2.537V32.3h2.97a.169.169 0 0 1 .168.172v.262c0 .046-.018.09-.05.122a.166.166 0 0 1-.118.05H67.75a.17.17 0 0 1-.168-.172zm-11.167 9.884a.282.282 0 0 1 .267-.288H60c1.863-.018 3.592.988 4.529 2.635a5.403 5.403 0 0 1 0 5.329c-.937 1.647-2.666 2.653-4.529 2.635h-3.317a.282.282 0 0 1-.267-.287zm3.347 9.266c2.429 0 4.191-1.772 4.191-4.27 0-2.484-1.762-4.256-4.19-4.256h-2.222v8.527h2.221zm11.907-9.705c2.944-.008 5.337 2.426 5.344 5.436.008 3.01-2.372 5.458-5.316 5.466-2.945.008-5.338-2.426-5.346-5.436a5.505 5.505 0 0 1 1.549-3.862 5.263 5.263 0 0 1 3.769-1.604zm0 9.842c1.74.006 3.31-1.061 3.98-2.704s.301-3.535-.929-4.792a4.226 4.226 0 0 0-4.687-.95c-1.606.684-2.65 2.291-2.644 4.07.013 2.411 1.922 4.362 4.28 4.376zm11.817-9.842c1.495 0 2.576.53 3.583 1.408a.297.297 0 0 1 .015.424l-.4.409c-.118.151-.237.135-.385-.015a4.432 4.432 0 0 0-2.829-1.136c-2.34 0-4.131 2.014-4.131 4.362 0 2.332 1.791 4.346 4.131 4.346 1.289 0 2.044-.53 2.83-1.136a.275.275 0 0 1 .355-.045l.444.409a.292.292 0 0 1-.015.408 5.025 5.025 0 0 1-3.598 1.47c-1.905 0-3.665-1.04-4.618-2.727a5.558 5.558 0 0 1 0-5.451c.953-1.687 2.713-2.726 4.618-2.726zm7.567 1.165h-2.577a.278.278 0 0 1-.2-.084.29.29 0 0 1-.082-.203v-.44a.29.29 0 0 1 .083-.203.278.278 0 0 1 .199-.084h6.28c.074 0 .145.03.198.084a.29.29 0 0 1 .082.204v.439a.29.29 0 0 1-.082.203.278.278 0 0 1-.199.085H92.18v9.297a.295.295 0 0 1-.281.288h-.563a.295.295 0 0 1-.281-.288v-9.297zm9.626-1.165c2.944-.009 5.337 2.425 5.345 5.436.008 3.01-2.372 5.458-5.316 5.466-2.944.008-5.338-2.425-5.346-5.436a5.505 5.505 0 0 1 1.548-3.862 5.263 5.263 0 0 1 3.769-1.604zm0 9.842c1.74.006 3.31-1.061 3.98-2.704a4.464 4.464 0 0 0-.929-4.792c-1.23-1.258-3.08-1.633-4.687-.95s-2.65 2.291-2.644 4.07c.013 2.411 1.922 4.362 4.28 4.376zm6.708-9.403c0-.077.03-.15.082-.204a.278.278 0 0 1 .199-.084h3.836a3.146 3.146 0 0 1 2.27.926 3.29 3.29 0 0 1 .958 2.3c0 1.392-.904 2.558-2.192 3.088l2.029 3.846a.292.292 0 0 1 .005.298.279.279 0 0 1-.257.142h-.755a.252.252 0 0 1-.236-.136l-1.97-4.013h-2.83v3.862a.295.295 0 0 1-.28.287h-.578a.278.278 0 0 1-.2-.084.29.29 0 0 1-.081-.203zm4.043 5.163a2.116 2.116 0 0 0 1.858-1.08 2.215 2.215 0 0 0 0-2.186 2.116 2.116 0 0 0-1.858-1.08h-2.874v4.346zm7.329-5.087a.269.269 0 0 1 .033-.26.256.256 0 0 1 .234-.104h.622a.306.306 0 0 1 .267.212l2.058 7.844h.06l2.472-8.041a.252.252 0 0 1 .252-.167h.267a.269.269 0 0 1 .252.167l2.517 8.04h.06l2.013-7.843a.305.305 0 0 1 .267-.212h.622c.09-.01.18.03.234.104a.269.269 0 0 1 .032.26l-2.799 10.175a.286.286 0 0 1-.266.212h-.237a.3.3 0 0 1-.252-.167l-2.562-8.192h-.074l-2.516 8.192a.3.3 0 0 1-.252.167h-.237a.286.286 0 0 1-.266-.212zm13.906-.076a.295.295 0 0 1 .281-.288h.578a.28.28 0 0 1 .199.084.29.29 0 0 1 .082.204v4.421h6.012v-4.421c0-.077.03-.15.082-.204a.278.278 0 0 1 .2-.084h.577a.294.294 0 0 1 .28.288v10.024a.294.294 0 0 1-.28.288h-.578a.278.278 0 0 1-.199-.085.29.29 0 0 1-.082-.203V42.07h-6.012v4.588a.29.29 0 0 1-.082.203.278.278 0 0 1-.2.085h-.577a.295.295 0 0 1-.281-.288zm14.987-.439c2.944-.009 5.337 2.425 5.345 5.436.008 3.01-2.372 5.458-5.316 5.466s-5.338-2.425-5.346-5.436a5.505 5.505 0 0 1 1.548-3.862 5.263 5.263 0 0 1 3.769-1.604zm0 9.842c1.74.006 3.31-1.061 3.98-2.704s.302-3.534-.929-4.792a4.226 4.226 0 0 0-4.687-.95c-1.606.684-2.65 2.291-2.644 4.07.013 2.411 1.922 4.362 4.28 4.376z" fill="#fff"/><path d="M56.444 50.817c0-.126.049-.246.135-.335a.457.457 0 0 1 .327-.138h5.665c2.869 0 5.227 2.014 5.227 4.624 0 1.914-1.677 3.307-2.82 3.928 1.289.547 3.258 1.765 3.258 4.052 0 2.785-2.407 4.798-5.3 4.798h-6.03a.457.457 0 0 1-.327-.138.478.478 0 0 1-.135-.334zm5.69 6.588c.951-.018 1.711-.817 1.701-1.79a1.708 1.708 0 0 0-.5-1.214 1.63 1.63 0 0 0-1.201-.477h-1.897v3.48zm.316 6.786c.973-.007 1.756-.82 1.75-1.814 0-.995-1.045-1.74-1.994-1.74h-1.969v3.554zm8.266-13.374a.484.484 0 0 1 .462-.473h2.917a.484.484 0 0 1 .462.473v16.457a.484.484 0 0 1-.462.472h-2.917a.484.484 0 0 1-.462-.472zm14.928-.697a9.27 9.27 0 0 1 5.932 2.337.442.442 0 0 1 .049.671l-1.921 2.089a.506.506 0 0 1-.657.025c-.923-.87-1.993-1.194-3.185-1.194-2.65 0-4.79 2.288-4.79 5.022.005 2.721 2.154 4.93 4.815 4.948a5.632 5.632 0 0 0 2.164-.398v-1.442h-1.532a.437.437 0 0 1-.324-.124.457.457 0 0 1-.138-.324v-2.46a.463.463 0 0 1 .13-.34.442.442 0 0 1 .332-.133h4.887c.247.01.44.22.437.472l.025 6.688a.619.619 0 0 1-.195.398 12.074 12.074 0 0 1-6.03 1.615c-4.82 0-8.728-3.995-8.728-8.925 0-4.929 3.908-8.925 8.729-8.925zm13.712.697c0-.126.049-.246.135-.335a.457.457 0 0 1 .327-.138h5.665c2.868 0 5.227 2.014 5.227 4.624 0 1.914-1.678 3.307-2.82 3.928 1.288.547 3.257 1.765 3.257 4.052 0 2.785-2.407 4.798-5.3 4.798h-6.03a.457.457 0 0 1-.326-.138.478.478 0 0 1-.135-.334zm5.689 6.588c.952-.018 1.711-.817 1.702-1.79 0-.457-.18-.896-.5-1.214s-.755-.49-1.202-.477h-1.897v3.48zm.316 6.786c.973-.007 1.756-.82 1.75-1.814 0-.995-1.045-1.74-1.993-1.74h-1.97v3.554zm8.266-13.374c0-.126.049-.246.136-.335a.457.457 0 0 1 .326-.138h2.894a.484.484 0 0 1 .461.473v13.275h5.787c.122 0 .24.05.327.138a.478.478 0 0 1 .135.334v2.71a.478.478 0 0 1-.135.334.457.457 0 0 1-.327.138h-9.142a.457.457 0 0 1-.326-.138.478.478 0 0 1-.136-.334zm11.379 0a.484.484 0 0 1 .461-.473h2.991c.123 0 .24.05.327.138a.478.478 0 0 1 .135.335v10.068c0 1.74 1.264 3.133 2.99 3.133a2.967 2.967 0 0 0 2.17-.907c.573-.59.887-1.394.87-2.226V50.817c0-.126.048-.246.135-.334a.457.457 0 0 1 .326-.139h2.991a.484.484 0 0 1 .462.473v10.267c0 3.78-3.112 6.911-6.954 6.911-3.817 0-6.904-3.132-6.904-6.91V50.816zm17.164 0c0-.126.049-.246.135-.335a.457.457 0 0 1 .327-.138h10.066c.122 0 .24.05.327.138a.478.478 0 0 1 .135.335v2.71a.478.478 0 0 1-.135.333.457.457 0 0 1-.327.139h-6.735v3.082h5.543a.484.484 0 0 1 .462.473v2.71a.478.478 0 0 1-.135.334.457.457 0 0 1-.327.138h-5.543v3.356h6.735c.122 0 .24.05.327.138a.478.478 0 0 1 .135.335v2.71a.478.478 0 0 1-.135.333.457.457 0 0 1-.327.139h-10.066a.457.457 0 0 1-.327-.139.478.478 0 0 1-.135-.334V50.817zm18.406 0c0-.126.048-.246.135-.335a.457.457 0 0 1 .326-.138h5.666c2.868 0 5.227 2.014 5.227 4.624 0 1.914-1.678 3.307-2.82 3.928 1.288.547 3.257 1.765 3.257 4.052 0 2.785-2.407 4.798-5.3 4.798h-6.03a.457.457 0 0 1-.326-.138.478.478 0 0 1-.135-.334zm5.688 6.588c.952-.018 1.711-.817 1.702-1.79 0-.457-.18-.896-.5-1.214a1.63 1.63 0 0 0-1.202-.477h-1.896v3.48zm.316 6.786c.973-.007 1.757-.82 1.75-1.814 0-.995-1.045-1.74-1.993-1.74h-1.97v3.554zm15.755-14.096c4.834-.013 8.763 3.982 8.777 8.925.013 4.943-3.895 8.961-8.729 8.975-4.833.013-8.763-3.982-8.776-8.925a9.038 9.038 0 0 1 2.541-6.34 8.641 8.641 0 0 1 6.187-2.635zm0 13.922c1.971.01 3.753-1.197 4.512-3.058a5.054 5.054 0 0 0-1.05-5.43 4.785 4.785 0 0 0-5.31-1.073c-1.819.776-3 2.598-2.99 4.614.018 2.724 2.173 4.929 4.838 4.947zm14.442-5.195l-4.911-7.782c-.097-.145-.102-.334-.013-.484s.255-.233.426-.212h3.55a.522.522 0 0 1 .39.224l2.795 4.624h.024l2.845-4.624a.481.481 0 0 1 .39-.224h3.549c.413 0 .632.373.413.696l-4.935 7.782 5.105 8.228c.105.14.118.329.033.481s-.252.237-.422.215h-3.38a.538.538 0 0 1-.413-.223l-3.185-5.022h-.048l-3.112 5.022a.53.53 0 0 1-.413.223h-3.38c-.413 0-.632-.372-.413-.696z" fill="#6089c6"/><path d="M56.38 71.333c0-.159.125-.288.28-.288h3.274c1.824-.004 3.305 1.504 3.31 3.37.004 1.864-1.472 3.38-3.296 3.384h-2.443v3.558a.295.295 0 0 1-.281.288h-.563a.278.278 0 0 1-.2-.084.29.29 0 0 1-.081-.204V71.333zm3.48 5.345c1.246-.006 2.252-1.042 2.25-2.317 0-1.226-1.036-2.165-2.25-2.165h-2.355v4.482zm9.536-5.784c2.945-.009 5.338 2.425 5.346 5.436.009 3.01-2.372 5.458-5.316 5.467-2.945.008-5.338-2.426-5.346-5.437a5.505 5.505 0 0 1 1.548-3.862 5.263 5.263 0 0 1 3.768-1.604zm0 9.842c1.74.006 3.311-1.061 3.98-2.704a4.464 4.464 0 0 0-.929-4.792 4.226 4.226 0 0 0-4.687-.949c-1.606.684-2.65 2.29-2.644 4.07.014 2.41 1.922 4.362 4.28 4.375zm6.561-9.403a.282.282 0 0 1 .266-.288h3.317c1.863-.017 3.592.989 4.529 2.636a5.403 5.403 0 0 1 0 5.328c-.937 1.647-2.666 2.653-4.529 2.636h-3.317a.282.282 0 0 1-.266-.288zm3.347 9.266c2.428 0 4.19-1.772 4.19-4.27 0-2.484-1.762-4.255-4.19-4.255h-2.222v8.525h2.222zm11.936-9.705c1.495 0 2.576.53 3.583 1.408a.297.297 0 0 1 .015.424l-.4.409c-.119.151-.237.135-.385-.015a4.432 4.432 0 0 0-2.83-1.136c-2.34 0-4.13 2.014-4.13 4.362 0 2.332 1.79 4.346 4.13 4.346 1.29 0 2.044-.53 2.83-1.136a.275.275 0 0 1 .355-.045l.445.409a.292.292 0 0 1-.015.409 5.025 5.025 0 0 1-3.599 1.469c-2.945 0-5.332-2.441-5.332-5.452 0-3.012 2.388-5.452 5.333-5.452zm4.398 10.357l4.502-10.19a.265.265 0 0 1 .252-.167h.148c.11-.003.21.063.252.166l4.472 10.191a.273.273 0 0 1-.011.274.26.26 0 0 1-.24.12h-.593a.272.272 0 0 1-.252-.167l-1.096-2.498h-5.258l-1.081 2.498a.272.272 0 0 1-.252.167h-.592a.26.26 0 0 1-.24-.12.273.273 0 0 1-.011-.274zm7.034-3.209c-.725-1.65-1.436-3.316-2.162-4.967h-.12l-2.162 4.967h4.443zm3.391 2.013c.074-.09.148-.197.22-.288.149-.196.312-.317.519-.135.103.09 1.185 1.15 2.503 1.15 1.2 0 1.984-.772 1.984-1.665 0-1.045-.889-1.666-2.592-2.393-1.627-.727-2.604-1.409-2.604-3.135 0-1.03.8-2.695 3.154-2.695.898.012 1.774.28 2.532.772a.342.342 0 0 1 .088.515c-.059.09-.118.197-.176.288a.337.337 0 0 1-.226.2.33.33 0 0 1-.293-.065c-.103-.06-1.036-.696-1.94-.696-1.569 0-2.043 1.03-2.043 1.665 0 1.015.755 1.605 1.999 2.135 2 .833 3.288 1.605 3.288 3.362 0 1.575-1.466 2.726-3.2 2.726a4.769 4.769 0 0 1-3.124-1.227.338.338 0 0 1-.09-.514zm9.951-7.995h-2.577a.285.285 0 0 1-.281-.288v-.439c0-.159.126-.287.28-.288h6.28c.075 0 .146.03.199.085a.29.29 0 0 1 .082.203v.44c0 .076-.03.149-.082.203s-.124.084-.199.084h-2.577v9.297a.295.295 0 0 1-.281.288h-.563a.295.295 0 0 1-.281-.288V72.06z" fill="#fff"/><path d="M27.695 0L21.52 2.35l.002 8.697 6.176-2.42" fill="#6089c6"/><path d="M27.697 8.628l6.078 2.417-.002-8.698L27.695 0" fill="#496b8e"/><path d="M27.695 0L21.52 2.35l.002 8.697 6.176-2.42" fill="#6089c6"/><path d="M27.697 8.628l6.078 2.417-.002-8.698L27.695 0" fill="#496b8e"/></g></g></svg>