<svg data-name="Layer 1" xmlns="http://www.w3.org/2000/svg" viewBox="0 0 1279.5 435.05"><defs><linearGradient id="a" x1="639.45" y1=".5" x2="639.45" y2="435.05" gradientUnits="userSpaceOnUse"><stop offset="0" stop-color="#5e94f4"/><stop offset="1" stop-color="#4872bd"/></linearGradient></defs><path d="M125.31 38.68l-27.94 10.7V10.89L125.3.5m0 38.18l27.5 10.69V10.88L125.3.5m2.56 45.84l.16.06v-.19zm112.49 60.47l.17 268.1H250v15.29l-.19.29-120.38 44.56-.08-388.55 119.17 42.17h1v18h-.95zm-55.55-1.71l-41.58-10.2v55.38l41.57 6.66zm41.17 11l-36.86-9.8.11 51.64L226 164zM121 46.46l.33-.12-.33-.13zM.78 88.51l119.33-42.07.08 388.56L0 390.44v-15.76h9.3l-.05-267.82-8.46.14H0V88.52zM55 173.66l-27 3.93v42.81l27-1.63zM64.7 157l41.57-6.69v-55.4l-41.58 10.22zm-41.58 7l37-6.09v-51.6l-36.95 9.83zm272.64 185.83v18.76H289v-50.16h14.8a27.66 27.66 0 0 1 8.28 1.11 15.92 15.92 0 0 1 5.83 3.13 12.52 12.52 0 0 1 3.44 4.9 17.2 17.2 0 0 1 1.14 6.4 16.45 16.45 0 0 1-1.22 6.41 13.84 13.84 0 0 1-3.59 5 16.71 16.71 0 0 1-5.86 3.28 25.31 25.31 0 0 1-8 1.17zm0-5.39h8.05a15.73 15.73 0 0 0 5.13-.77 10.57 10.57 0 0 0 3.73-2.15 9 9 0 0 0 2.27-3.31 11.38 11.38 0 0 0 .77-4.24 9.61 9.61 0 0 0-3-7.49q-3-2.69-8.94-2.69h-8.05zm193.9-.91a28.93 28.93 0 0 1-1.78 10.34 23.63 23.63 0 0 1-5 8.1 22.45 22.45 0 0 1-7.83 5.27 28.13 28.13 0 0 1-20.17 0A22.46 22.46 0 0 1 447 362a23.63 23.63 0 0 1-5-8.1 30.92 30.92 0 0 1 0-20.68 23.81 23.81 0 0 1 5-8.12 22.56 22.56 0 0 1 7.81-5.31 27.85 27.85 0 0 1 20.17 0 22.54 22.54 0 0 1 7.83 5.31 23.81 23.81 0 0 1 5 8.12 28.89 28.89 0 0 1 1.85 10.31zm-7 0a25.52 25.52 0 0 0-1.26-8.3 17.52 17.52 0 0 0-3.57-6.21 15.53 15.53 0 0 0-5.6-3.9 20.32 20.32 0 0 0-14.67 0A15.78 15.78 0 0 0 452 329a17.39 17.39 0 0 0-3.58 6.21 27.9 27.9 0 0 0 0 16.58A17.38 17.38 0 0 0 452 358a15.63 15.63 0 0 0 5.62 3.89 20.75 20.75 0 0 0 14.67 0 15.39 15.39 0 0 0 5.6-3.89 17.52 17.52 0 0 0 3.57-6.19 25.35 25.35 0 0 0 1.24-8.28zm171.71 0a28.2 28.2 0 0 1-1.79 10.25 22.19 22.19 0 0 1-12.84 13 27.23 27.23 0 0 1-10.08 1.8h-18.72v-50.15h18.76a27 27 0 0 1 10.08 1.81 22.27 22.27 0 0 1 7.8 5.11 22.85 22.85 0 0 1 5 7.92 28.26 28.26 0 0 1 1.83 10.26zm-7 0a25.19 25.19 0 0 0-1.26-8.26 17.38 17.38 0 0 0-3.57-6.16 15.29 15.29 0 0 0-5.6-3.85 19.26 19.26 0 0 0-7.31-1.33h-11.87v39.16h11.94a19.26 19.26 0 0 0 7.31-1.33 15.25 15.25 0 0 0 5.6-3.83 17.2 17.2 0 0 0 3.57-6.14 25.19 25.19 0 0 0 1.26-8.26zM811 358.23a1.4 1.4 0 0 1 1 .45l2.66 2.91a21.39 21.39 0 0 1-7.47 5.56 25.49 25.49 0 0 1-10.59 2 25.09 25.09 0 0 1-9.84-1.87 21.61 21.61 0 0 1-7.52-5.25 23.74 23.74 0 0 1-4.83-8.11 30.32 30.32 0 0 1-1.71-10.39 28.58 28.58 0 0 1 1.83-10.4 23.86 23.86 0 0 1 5.17-8.12 23.1 23.1 0 0 1 8-5.26 27 27 0 0 1 10.23-1.88 24.2 24.2 0 0 1 9.54 1.72 24 24 0 0 1 7.12 4.65l-2.2 3.12a2.58 2.58 0 0 1-.56.58 1.55 1.55 0 0 1-.91.22 1.79 1.79 0 0 1-1-.33c-.34-.22-.74-.49-1.21-.82s-1-.68-1.65-1.05a14.75 14.75 0 0 0-2.24-1 17.76 17.76 0 0 0-3-.82 20.19 20.19 0 0 0-4-.34 19 19 0 0 0-7.37 1.39 16.36 16.36 0 0 0-5.75 3.93 17.87 17.87 0 0 0-3.7 6.18 23.76 23.76 0 0 0-1.35 8.23 24.11 24.11 0 0 0 1.35 8.36 18.55 18.55 0 0 0 3.68 6.22 15.42 15.42 0 0 0 5.51 3.86 17.55 17.55 0 0 0 6.81 1.33 27.14 27.14 0 0 0 4-.26 16.19 16.19 0 0 0 3.31-.82 14 14 0 0 0 2.84-1.42 22 22 0 0 0 2.64-2.05 1.77 1.77 0 0 1 1.21-.52zm165.86 10.36h-5.25a2.21 2.21 0 0 1-1.47-.46 2.8 2.8 0 0 1-.84-1.15l-4.69-12.11H942.1L937.42 367a2.88 2.88 0 0 1-.84 1.12 2.24 2.24 0 0 1-1.48.49h-5.25l20.06-50.16h6.89zM944 350h18.72l-7.88-20.41a38.68 38.68 0 0 1-1.5-4.72q-.39 1.44-.75 2.64c-.25.81-.49 1.51-.72 2.12zm176.88-23.7a2.7 2.7 0 0 1-.66.79 1.45 1.45 0 0 1-.91.26 2.36 2.36 0 0 1-1.38-.59 20 20 0 0 0-2-1.31 16.13 16.13 0 0 0-2.9-1.32 12.77 12.77 0 0 0-4.12-.59 12.13 12.13 0 0 0-4 .61 8.52 8.52 0 0 0-2.92 1.66 6.82 6.82 0 0 0-1.77 2.47 7.8 7.8 0 0 0-.6 3.06 5.67 5.67 0 0 0 1 3.49 8.91 8.91 0 0 0 2.73 2.36 21.05 21.05 0 0 0 3.85 1.7l4.41 1.48c1.5.52 3 1.09 4.41 1.74a15.7 15.7 0 0 1 3.85 2.43 11.15 11.15 0 0 1 2.73 3.6 12.16 12.16 0 0 1 1 5.25 16.83 16.83 0 0 1-1.12 6.18 14.26 14.26 0 0 1-3.27 5 15.17 15.17 0 0 1-5.29 3.36 19.36 19.36 0 0 1-7.12 1.23 21.72 21.72 0 0 1-8.87-1.77 20.74 20.74 0 0 1-6.85-4.78l2-3.22a2.63 2.63 0 0 1 .69-.64 1.53 1.53 0 0 1 .89-.27 2.82 2.82 0 0 1 1.68.79 27.66 27.66 0 0 0 2.36 1.73 18.55 18.55 0 0 0 3.43 1.74 13.65 13.65 0 0 0 4.92.78 13 13 0 0 0 4.3-.66 9.24 9.24 0 0 0 3.21-1.87 8.27 8.27 0 0 0 2-2.89 9.6 9.6 0 0 0 .7-3.75 6.32 6.32 0 0 0-1-3.72 8.69 8.69 0 0 0-2.72-2.44 19.29 19.29 0 0 0-3.83-1.66l-4.41-1.4a45.85 45.85 0 0 1-4.41-1.66 14.48 14.48 0 0 1-3.83-2.45 11.28 11.28 0 0 1-2.71-3.76 13.41 13.41 0 0 1-1-5.59 13.43 13.43 0 0 1 4-9.55 14.55 14.55 0 0 1 4.85-3.08 17.71 17.71 0 0 1 6.63-1.16 21.35 21.35 0 0 1 7.66 1.33 17.75 17.75 0 0 1 6.06 3.85zm157.58-7.84v5.71h-16.21v44.45h-6.79v-44.48h-16.27v-5.71zm-993.68-34.1v-102h37.52a71.65 71.65 0 0 1 18 2 34.33 34.33 0 0 1 12.11 5.53 20.93 20.93 0 0 1 6.82 8.68 29.22 29.22 0 0 1 2.14 11.41 22.52 22.52 0 0 1-1 6.62 19.34 19.34 0 0 1-3.08 6 23.08 23.08 0 0 1-5.39 5.08 35 35 0 0 1-7.91 4q10.08 2.46 14.91 7.95t4.83 14.1a29.15 29.15 0 0 1-2.52 12.11 27.66 27.66 0 0 1-7.39 9.77 35.18 35.18 0 0 1-12 6.51 52.33 52.33 0 0 1-16.31 2.34zm23.66-59.08h12.32a40 40 0 0 0 7.07-.56 14.49 14.49 0 0 0 5.35-2 8.94 8.94 0 0 0 3.36-3.85 14.4 14.4 0 0 0 1.16-6.16 17.25 17.25 0 0 0-.91-6.05 8.71 8.71 0 0 0-2.8-3.89 11.76 11.76 0 0 0-4.8-2.1 32.83 32.83 0 0 0-6.89-.63h-13.86zm0 15.82v25.41h16.66a20.7 20.7 0 0 0 7.66-1.19 12 12 0 0 0 4.66-3.08 10.31 10.31 0 0 0 2.31-4.27 18.72 18.72 0 0 0 .63-4.83 16.18 16.18 0 0 0-.74-5 8.37 8.37 0 0 0-2.52-3.78 12.38 12.38 0 0 0-4.72-2.38 27.52 27.52 0 0 0-7.42-.84zm100.1 43.26h-23.8v-102h23.8zm72.94-17.08a40.3 40.3 0 0 0 8.68-.84 41.89 41.89 0 0 0 7.14-2.24v-15.5h-10.08a4.85 4.85 0 0 1-3.5-1.19 4 4 0 0 1-1.26-3v-13h36.26v43a53.25 53.25 0 0 1-8.16 4.94 52.46 52.46 0 0 1-9 3.39 66.82 66.82 0 0 1-10.22 2 101.13 101.13 0 0 1-11.65.63 53.56 53.56 0 0 1-20.72-3.95 49.59 49.59 0 0 1-27.41-27.44 53.87 53.87 0 0 1-3.95-20.76 56.5 56.5 0 0 1 3.78-21 47.23 47.23 0 0 1 10.81-16.49 49.11 49.11 0 0 1 17-10.78 61.63 61.63 0 0 1 22.3-3.85 65 65 0 0 1 12 1.05 59.21 59.21 0 0 1 10.32 2.87 48.22 48.22 0 0 1 8.65 4.34 47.07 47.07 0 0 1 7 5.46l-6.86 10.43a7.71 7.71 0 0 1-2.35 2.31 5.56 5.56 0 0 1-3 .84 8.13 8.13 0 0 1-4.34-1.4q-2.81-1.68-5.29-2.9a32.55 32.55 0 0 0-5.07-2 34.49 34.49 0 0 0-5.46-1.12 54.36 54.36 0 0 0-6.44-.35 29.22 29.22 0 0 0-12 2.35 25.71 25.71 0 0 0-9.07 6.61 29.86 29.86 0 0 0-5.76 10.31 41.12 41.12 0 0 0-2 13.33 42.73 42.73 0 0 0 2.17 14.39 31 31 0 0 0 6.19 10.64 26.36 26.36 0 0 0 9.38 6.62 30.51 30.51 0 0 0 11.91 2.27zm90.71 17.08v-102h37.52a71.73 71.73 0 0 1 18 2 34.28 34.28 0 0 1 12.1 5.53 21 21 0 0 1 6.83 8.68 29.4 29.4 0 0 1 2.14 11.41 22.21 22.21 0 0 1-1 6.62 19.12 19.12 0 0 1-3.08 6 22.88 22.88 0 0 1-5.39 5.08 35 35 0 0 1-7.91 4q10.08 2.46 14.91 7.95t4.83 14.1a29.15 29.15 0 0 1-2.52 12.11 27.63 27.63 0 0 1-7.38 9.77 35.23 35.23 0 0 1-12 6.51 52.28 52.28 0 0 1-16.31 2.34zm23.66-59.08h12.32a39.9 39.9 0 0 0 7.07-.56 14.55 14.55 0 0 0 5.36-2 8.94 8.94 0 0 0 3.36-3.85 14.4 14.4 0 0 0 1.16-6.16 17.48 17.48 0 0 0-.91-6.05 8.73 8.73 0 0 0-2.81-3.89 11.77 11.77 0 0 0-4.79-2.1 32.93 32.93 0 0 0-6.9-.63h-13.86zm0 15.82v25.41h16.66a20.76 20.76 0 0 0 7.67-1.19 12.08 12.08 0 0 0 4.65-3.08 10.2 10.2 0 0 0 2.31-4.27 18.73 18.73 0 0 0 .64-4.83 16.18 16.18 0 0 0-.74-5 8.37 8.37 0 0 0-2.52-3.78 12.43 12.43 0 0 0-4.73-2.38 27.49 27.49 0 0 0-7.41-.84zm97.86 24.36h37.8v18.9h-61.46v-102h23.66zm97.44.21a21.77 21.77 0 0 0 8.51-1.57 17.2 17.2 0 0 0 6.33-4.52 19.92 19.92 0 0 0 4-7.17 31.37 31.37 0 0 0 1.36-9.63v-60.44H835v60.41a47.13 47.13 0 0 1-3 17.22 38.61 38.61 0 0 1-8.72 13.51 39.27 39.27 0 0 1-13.79 8.82 54.76 54.76 0 0 1-36.61 0 39.36 39.36 0 0 1-13.88-8.82 38.24 38.24 0 0 1-8.66-13.48 47.76 47.76 0 0 1-3-17.22v-60.44H771v60.34a31.36 31.36 0 0 0 1.37 9.63 20.5 20.5 0 0 0 3.95 7.21 17.08 17.08 0 0 0 6.34 4.55 21.72 21.72 0 0 0 8.49 1.57zm130.9-83.3v18.2h-41.86v23.8h32.06v17.5h-32.06v24.29h41.86v18.2h-65.66v-102zm52.5 102v-102h37.52a71.65 71.65 0 0 1 18 2 34.33 34.33 0 0 1 12.11 5.53 21 21 0 0 1 6.83 8.68 29.4 29.4 0 0 1 2.13 11.41 22.52 22.52 0 0 1-1 6.62 19.34 19.34 0 0 1-3.08 6 23.08 23.08 0 0 1-5.39 5.08 35 35 0 0 1-7.91 4q10.08 2.46 14.91 7.95t4.83 14.1a29.15 29.15 0 0 1-2.52 12.11 27.74 27.74 0 0 1-7.38 9.77 35.33 35.33 0 0 1-12 6.51 52.33 52.33 0 0 1-16.31 2.34zm23.66-59.08h12.32a40 40 0 0 0 7.07-.56 14.55 14.55 0 0 0 5.36-2 9 9 0 0 0 3.36-3.85 14.57 14.57 0 0 0 1.15-6.16 17.25 17.25 0 0 0-.91-6.05 8.71 8.71 0 0 0-2.8-3.89 11.77 11.77 0 0 0-4.79-2.1 33 33 0 0 0-6.9-.63h-13.86zm0 15.82v25.41h16.66a20.79 20.79 0 0 0 7.67-1.19 12.08 12.08 0 0 0 4.65-3.08 10.31 10.31 0 0 0 2.31-4.27 18.72 18.72 0 0 0 .63-4.83 16.18 16.18 0 0 0-.73-5 8.37 8.37 0 0 0-2.52-3.78 12.43 12.43 0 0 0-4.73-2.38 27.52 27.52 0 0 0-7.42-.84zm174.86-7.77a54.64 54.64 0 0 1-3.82 20.58 48.56 48.56 0 0 1-27.44 27.58 60.9 60.9 0 0 1-43.36 0 48.63 48.63 0 0 1-27.55-27.58 57.49 57.49 0 0 1 0-41.16 49.2 49.2 0 0 1 10.78-16.52 50.06 50.06 0 0 1 16.77-11 57 57 0 0 1 21.7-4 56.2 56.2 0 0 1 21.66 4 50 50 0 0 1 16.7 11 49.25 49.25 0 0 1 10.74 16.52 54.53 54.53 0 0 1 3.82 20.54zm-24.22 0a44.23 44.23 0 0 0-2-13.61 28.89 28.89 0 0 0-5.64-10.26 24.41 24.41 0 0 0-9-6.44 31.05 31.05 0 0 0-12.11-2.24 31.51 31.51 0 0 0-12.22 2.24 24.32 24.32 0 0 0-9 6.44 28.87 28.87 0 0 0-5.63 10.26 48.51 48.51 0 0 0 0 27.3 28.91 28.91 0 0 0 5.63 10.25 23.91 23.91 0 0 0 9 6.41 31.89 31.89 0 0 0 12.22 2.2 31.43 31.43 0 0 0 12.11-2.2 24 24 0 0 0 9-6.41 28.93 28.93 0 0 0 5.64-10.25 44.58 44.58 0 0 0 2-13.73zm64.61-1.4l-31.57-49.56h23.66a7.28 7.28 0 0 1 3.39.6 5.21 5.21 0 0 1 1.93 2l20.3 34.37a15.39 15.39 0 0 1 .8-1.75c.3-.56.64-1.14 1-1.75l17.78-30.52a5.32 5.32 0 0 1 4.76-2.94h22.68l-32 48.51 32.69 53.48h-23.66a5.91 5.91 0 0 1-3.75-1.12 8.37 8.37 0 0 1-2.27-2.66l-20.44-35.7a14.69 14.69 0 0 1-1.26 2.66l-19 33a9.6 9.6 0 0 1-2.24 2.63 5.33 5.33 0 0 1-3.5 1.15h-22.12zm-868-162.13v9H320v69.85h-10.67V78.74h-25.57v-9zm75.13 78.82h-10.72v-35.9h-42.46v35.86h-10.72V69.77h10.72v35.15h42.46V69.77h10.73zm67.81-78.82v8.69h-37.83v26.18h30.64V113h-30.64v26.9h37.84v8.69h-48.56V69.77zm104.88 39.44a44.37 44.37 0 0 1-2.8 16.11 35.68 35.68 0 0 1-7.92 12.43 35.29 35.29 0 0 1-12.27 8 42.57 42.57 0 0 1-15.84 2.83H525V69.77h29.48a42.58 42.58 0 0 1 15.84 2.84 35.06 35.06 0 0 1 12.27 8 36 36 0 0 1 7.92 12.45 44.42 44.42 0 0 1 2.78 16.15zm-10.94 0a39.54 39.54 0 0 0-2-13 27.39 27.39 0 0 0-5.61-9.68 23.86 23.86 0 0 0-8.8-6 30.5 30.5 0 0 0-11.5-2.09h-18.72V140h18.75a30.31 30.31 0 0 0 11.5-2.09 24 24 0 0 0 8.8-6 27.07 27.07 0 0 0 5.61-9.65 39.54 39.54 0 0 0 1.98-13.05zm98.67 0a45.49 45.49 0 0 1-2.81 16.25 37.16 37.16 0 0 1-7.92 12.73 35.28 35.28 0 0 1-12.28 8.24 44.22 44.22 0 0 1-31.71 0 35.44 35.44 0 0 1-12.29-8.28 37.16 37.16 0 0 1-7.92-12.73 48.39 48.39 0 0 1 0-32.5A37.48 37.48 0 0 1 614 80.2a35.58 35.58 0 0 1 12.26-8.34 43.81 43.81 0 0 1 31.71 0 35.42 35.42 0 0 1 12.29 8.34 37.48 37.48 0 0 1 7.95 12.8 45.49 45.49 0 0 1 2.79 16.21zm-10.95 0a40.09 40.09 0 0 0-2-13 27.57 27.57 0 0 0-5.61-9.76 24.29 24.29 0 0 0-8.8-6.13 31.94 31.94 0 0 0-23 0 24.57 24.57 0 0 0-8.83 6.13 27.33 27.33 0 0 0-5.64 9.76 40.09 40.09 0 0 0-2 13 39.81 39.81 0 0 0 2 13 27.37 27.37 0 0 0 5.64 9.73 24.28 24.28 0 0 0 8.83 6.11 32.5 32.5 0 0 0 23 0 24 24 0 0 0 8.8-6.11 27.61 27.61 0 0 0 5.61-9.73 39.81 39.81 0 0 0 2.01-13.04zm81.07 23.1a2.24 2.24 0 0 1 1.6.71l4.18 4.57a33.69 33.69 0 0 1-11.75 8.74 40 40 0 0 1-16.63 3.14 39.2 39.2 0 0 1-15.46-2.94 33.78 33.78 0 0 1-11.82-8.25 37.13 37.13 0 0 1-7.59-12.74 47.45 47.45 0 0 1-2.7-16.33 44.84 44.84 0 0 1 2.89-16.34 37.48 37.48 0 0 1 8.15-12.8 36.49 36.49 0 0 1 12.51-8.27 42.67 42.67 0 0 1 16.09-3 35.95 35.95 0 0 1 26.18 10l-3.46 4.9a3.82 3.82 0 0 1-.88.91 2.42 2.42 0 0 1-1.43.35 2.8 2.8 0 0 1-1.52-.52q-.8-.53-1.89-1.29c-.74-.51-1.6-1.06-2.59-1.65a21.92 21.92 0 0 0-3.55-1.54 29.32 29.32 0 0 0-4.73-1.29 32.69 32.69 0 0 0-6.21-.53 30 30 0 0 0-11.58 2.18 26 26 0 0 0-9.05 6.18 28.15 28.15 0 0 0-5.89 9.74 37.39 37.39 0 0 0-2.12 12.93 38 38 0 0 0 2.12 13.14 29.18 29.18 0 0 0 5.77 9.77 24.28 24.28 0 0 0 8.67 6.07 27.55 27.55 0 0 0 10.78 2.09 43.09 43.09 0 0 0 6.32-.41 25.36 25.36 0 0 0 5.2-1.29 21.79 21.79 0 0 0 4.45-2.23 34.88 34.88 0 0 0 4.16-3.22 2.78 2.78 0 0 1 1.79-.82zm73.48-62.54v9h-25.45v69.85h-10.67V78.74h-25.58v-9zm79 39.44a45.49 45.49 0 0 1-2.81 16.25 37.16 37.16 0 0 1-7.92 12.73 35.37 35.37 0 0 1-12.29 8.28 44.22 44.22 0 0 1-31.71 0 35.44 35.44 0 0 1-12.26-8.28 37.16 37.16 0 0 1-7.92-12.73 48.39 48.39 0 0 1 0-32.5 37.48 37.48 0 0 1 7.92-12.76 35.58 35.58 0 0 1 12.26-8.34 43.81 43.81 0 0 1 31.71 0 35.52 35.52 0 0 1 12.29 8.34A37.48 37.48 0 0 1 900.85 93a45.49 45.49 0 0 1 2.81 16.21zm-10.95 0a40.09 40.09 0 0 0-2-13 27.57 27.57 0 0 0-5.61-9.76 24.29 24.29 0 0 0-8.8-6.13 31.94 31.94 0 0 0-23 0 24.57 24.57 0 0 0-8.83 6.13 27.33 27.33 0 0 0-5.64 9.76 40.09 40.09 0 0 0-2 13 39.81 39.81 0 0 0 2 13 27.37 27.37 0 0 0 5.64 9.73 24.28 24.28 0 0 0 8.83 6.11 32.5 32.5 0 0 0 23 0 24 24 0 0 0 8.8-6.11 27.61 27.61 0 0 0 5.61-9.73 39.81 39.81 0 0 0 2.05-13.04zM930 115.7v32.89h-10.67V69.77h22.28a48.58 48.58 0 0 1 12.92 1.52 24.59 24.59 0 0 1 9 4.37 17.56 17.56 0 0 1 5.26 6.9 23.21 23.21 0 0 1 1.7 9 22.67 22.67 0 0 1-1.32 7.81 20.66 20.66 0 0 1-3.82 6.52 23.1 23.1 0 0 1-6.11 4.92 30.19 30.19 0 0 1-8.16 3.08 11.36 11.36 0 0 1 3.52 3.35l23 31.3h-9.46a4.64 4.64 0 0 1-4.29-2.26l-20.46-28.16a6 6 0 0 0-2-1.89 7.25 7.25 0 0 0-3.3-.58zm0-7.76h11.16a27.19 27.19 0 0 0 8.22-1.12 16.7 16.7 0 0 0 5.94-3.19 13.27 13.27 0 0 0 3.61-4.93 16.14 16.14 0 0 0 1.21-6.32q0-7-4.65-10.62t-13.83-3.57H930zm71.55-38.17h8.85a3.76 3.76 0 0 1 2.37.72 3.53 3.53 0 0 1 1.23 1.81l16.28 54.78c.3 1 .56 2.06.8 3.19s.47 2.33.69 3.58c.26-1.25.51-2.45.77-3.6a29.81 29.81 0 0 1 .88-3.17l18.53-54.78a4 4 0 0 1 1.3-1.73 3.54 3.54 0 0 1 2.33-.8h3.08a3.63 3.63 0 0 1 2.34.72 3.84 3.84 0 0 1 1.29 1.81l18.43 54.78a53.21 53.21 0 0 1 1.76 6.55c.22-1.21.42-2.37.6-3.47a25.81 25.81 0 0 1 .72-3.08l16.33-54.78a3.52 3.52 0 0 1 1.24-1.76 3.64 3.64 0 0 1 2.34-.77h8.3l-24.58 78.82h-9.57l-20-60.12a33.19 33.19 0 0 1-1.1-4c-.18.74-.35 1.44-.52 2.12s-.34 1.29-.52 1.84l-20.08 60.12h-9.57zm184.8 78.82h-10.73v-35.86h-42.46v35.86h-10.72V69.77h10.72v35.15h42.46V69.77h10.73zm92.45-39.38a45.49 45.49 0 0 1-2.8 16.25 37.16 37.16 0 0 1-7.92 12.73 35.37 35.37 0 0 1-12.29 8.28 44.22 44.22 0 0 1-31.71 0 35.38 35.38 0 0 1-12.27-8.28 37.16 37.16 0 0 1-7.92-12.73 48.55 48.55 0 0 1 0-32.5 37.48 37.48 0 0 1 7.92-12.76 35.53 35.53 0 0 1 12.19-8.34 43.81 43.81 0 0 1 31.71 0A35.52 35.52 0 0 1 1268 80.2a37.48 37.48 0 0 1 8 12.8 45.49 45.49 0 0 1 2.75 16.21zm-10.94 0a40.09 40.09 0 0 0-2-13 27.57 27.57 0 0 0-5.61-9.76 24.29 24.29 0 0 0-8.8-6.13 32 32 0 0 0-23.05 0 24.62 24.62 0 0 0-8.82 6.13 27.33 27.33 0 0 0-5.64 9.76 40.09 40.09 0 0 0-2 13 39.81 39.81 0 0 0 2 13 27.37 27.37 0 0 0 5.64 9.73 24.33 24.33 0 0 0 8.82 6.11 32.53 32.53 0 0 0 23.05 0 24 24 0 0 0 8.8-6.11 27.61 27.61 0 0 0 5.61-9.73 39.81 39.81 0 0 0 1.95-13z" fill="url(#a)"/></svg>