<svg data-name="Layer 1" xmlns="http://www.w3.org/2000/svg" viewBox="0 0 500 461"><path d="M496.87 60.28a14.2 14.2 0 0 0-12.77-6.7h-377l-6.67-40.19A16.6 16.6 0 0 0 84.38 0H16.1A15.81 15.81 0 0 0 0 16.19a16.15 16.15 0 0 0 16.1 16.18h55l35.53 214.87a10.65 10.65 0 0 0 1.11 4.47l11.66 73.67a16.12 16.12 0 0 0 16.1 12.84h292A15.81 15.81 0 0 0 443.57 322a16.15 16.15 0 0 0-16.1-16.18H148.78l-7.21-43.54h295.34a14.09 14.09 0 0 0 9.44-2.23A15.54 15.54 0 0 0 453 250l46.08-175.8a14.37 14.37 0 0 0-2.21-13.92zM179.32 352.73a54.14 54.14 0 1 0 53.85 54.13 54 54 0 0 0-53.85-54.13zm0 32.37c11.66 0 20.54 9.48 20.54 21.21a21.5 21.5 0 0 1-21.1 21.2c-11.66 0-20.54-9.48-20.54-21.2 0-11.17 9.44-21.21 21.1-21.21zM355.86 352.73a54.14 54.14 0 1 0 53.85 54.13 54 54 0 0 0-53.85-54.13zm-.56 32.37a20.79 20.79 0 0 1 21.1 21.21 21.1 21.1 0 1 1-42.19 0c0-11.17 9.44-21.21 21.09-21.21z" fill="#5e94f4"/></svg>