<svg height="15" viewBox="0 0 14 15" width="14" xmlns="http://www.w3.org/2000/svg"><path d="m7 .21875c-3.74609375 0-6.78125 3.03515625-6.78125 6.78125 0 3.7460938 3.03515625 6.78125 6.78125 6.78125 3.7460938 0 6.78125-3.0351562 6.78125-6.78125 0-3.74609375-3.0351562-6.78125-6.78125-6.78125zm0 12.25c-3.02148438 0-5.46875-2.4472656-5.46875-5.46875 0-3.02148438 2.44726562-5.46875 5.46875-5.46875 3.0214844 0 5.46875 2.44726562 5.46875 5.46875 0 3.0214844-2.4472656 5.46875-5.46875 5.46875zm-.875-8.640625v3.171875h-1.83203125c-.29257813 0-.4375.35273437-.23242188.56054688l2.70703125 2.70703122c.12851563.1285157.33632813.1285157.46484375 0l2.70703125-2.70703122c.20781248-.20781251.06015625-.56054688-.23242187-.56054688h-1.83203125v-3.171875c0-.18046875-.14765625-.328125-.328125-.328125h-1.09375c-.18046875 0-.328125.14765625-.328125.328125z" fill="#5e94f4" transform="translate(0 1)"/></svg>