<?xml version="1.0" encoding="UTF-8"?>
<svg width="29px" height="29px" viewBox="0 0 29 29" version="1.1" xmlns="http://www.w3.org/2000/svg" xmlns:xlink="http://www.w3.org/1999/xlink">
    <!-- Generator: Sketch 41 (35326) - http://www.bohemiancoding.com/sketch -->
    <title>Facebook-color</title>
    <desc>Created with Sketch.</desc>
    <defs></defs>
    <g id="Page-1" stroke="none" stroke-width="1" fill="none" fill-rule="evenodd">
        <g id="Homepage" transform="translate(-1023.000000, -1156.000000)" fill="#4460A0">
            <g id="sidebar" transform="translate(931.000000, 1041.000000)">
                <g id="social">
                    <path d="M107.48984,144 L93.6005774,144 C92.7163439,144 92,143.283212 92,142.399323 L92,116.600565 C92,115.716451 92.7164564,115 93.6005774,115 L119.399535,115 C120.283431,115 121,115.716451 121,116.600565 L121,142.399323 C121,143.283324 120.283319,144 119.399535,144 L112.00958,144 L112.00958,132.769602 L115.779107,132.769602 L116.34354,128.392916 L112.00958,128.392916 L112.00958,125.598679 C112.00958,124.331528 112.361451,123.468006 114.178529,123.468006 L116.496126,123.466993 L116.496126,119.552451 C116.095306,119.499113 114.719557,119.379949 113.118979,119.379949 C109.777504,119.379949 107.48984,121.419589 107.48984,125.16523 L107.48984,128.392916 L103.710636,128.392916 L103.710636,132.769602 L107.48984,132.769602 L107.48984,144 L107.48984,144 Z" id="Facebook"></path>
                </g>
            </g>
        </g>
    </g>
</svg>