<svg width="0" height="0" class="hidden">
  <symbol viewBox="0 0 27 19" xmlns="http://www.w3.org/2000/svg" id="article">
    <path d="M24.764 0h-6.553c-2.255 0-4.214 1.51-4.706 3.642C13.008 1.51 11.053 0 8.798 0H2.25C1.008 0 0 .975 0 2.177v11.149c0 1.202 1.008 2.177 2.25 2.177h4.205c4.79 0 6.22 1.107 6.904 3.402.033.127.244.127.282 0 .689-2.295 2.118-3.402 6.904-3.402h4.205c1.242 0 2.25-.975 2.25-2.177V2.182C27 .984 26.002.009 24.764 0zm-13.42 12.038a.16.16 0 0 1-.164.158H3.666a.16.16 0 0 1-.164-.158v-1.039a.16.16 0 0 1 .164-.159h7.518a.16.16 0 0 1 .164.159v1.039zm0-2.763a.16.16 0 0 1-.164.16H3.666a.16.16 0 0 1-.164-.16V8.237a.16.16 0 0 1 .164-.159h7.518a.16.16 0 0 1 .164.159v1.038zm0-2.762a.16.16 0 0 1-.164.159H3.666a.16.16 0 0 1-.164-.159V5.475a.16.16 0 0 1 .164-.16h7.518a.16.16 0 0 1 .164.16v1.038zm12.154 5.52a.16.16 0 0 1-.164.159H15.82a.16.16 0 0 1-.164-.159v-1.038a.16.16 0 0 1 .164-.16h7.52a.16.16 0 0 1 .163.16v1.038zm0-2.762a.16.16 0 0 1-.164.159H15.82a.16.16 0 0 1-.164-.16V8.233a.16.16 0 0 1 .164-.158h7.52a.16.16 0 0 1 .163.158v1.039zm0-2.762a.16.16 0 0 1-.164.158H15.82a.16.16 0 0 1-.164-.158V5.475a.16.16 0 0 1 .164-.16h7.52a.16.16 0 0 1 .163.16v1.034z"
      fill="#fff"></path>
  </symbol>
  <symbol viewBox="0 0 25 22" xmlns="http://www.w3.org/2000/svg" id="headphones">
    <path d="M12.5 0C5.592 0 0 5.623 0 12.571v2.358c0 .595.334 1.139.864 1.405l.702.353C1.664 19.638 4.073 22 7.031 22h1.172c.647 0 1.172-.528 1.172-1.179V12.18c0-.651-.525-1.179-1.172-1.179H7.031c-1.53 0-2.913.632-3.906 1.651v-.08c0-5.198 4.206-9.428 9.375-9.428 5.17 0 9.375 4.23 9.375 9.428v.08A5.437 5.437 0 0 0 17.969 11h-1.172c-.647 0-1.172.528-1.172 1.179v8.642c0 .651.525 1.179 1.172 1.179h1.172c2.958 0 5.367-2.362 5.465-5.313l.702-.353c.53-.266.864-.81.864-1.405V12.57C25 5.624 19.41 0 12.5 0z"
      fill="#fff"></path>
  </symbol>
</svg>