<svg width="0" height="0" class="hidden">
  <symbol xmlns="http://www.w3.org/2000/svg" viewBox="0 0 576 419" id="article">
    <path d="M528.3 0H388.5a102.83 102.83 0 0 0-100.4 80.32A102.91 102.91 0 0 0 187.7 0H48A48 48 0 0 0 0 48v245.87a48 48 0 0 0 48 48h89.7c102.2 0 132.7 24.41 147.3 75 .7 2.8 5.2 2.8 6 0 14.7-50.61 45.2-75 147.3-75H528a48 48 0 0 0 48-48V48.11A48.11 48.11 0 0 0 528.3 0zM242 265.46a3.48 3.48 0 0 1-3.5 3.5H78.2a3.48 3.48 0 0 1-3.5-3.5v-22.9a3.48 3.48 0 0 1 3.5-3.5h160.4a3.48 3.48 0 0 1 3.5 3.5v22.9zm0-60.91a3.48 3.48 0 0 1-3.5 3.5H78.2a3.48 3.48 0 0 1-3.5-3.5v-22.91a3.48 3.48 0 0 1 3.5-3.5h160.4a3.48 3.48 0 0 1 3.5 3.5v22.91zm0-60.92a3.49 3.49 0 0 1-3.5 3.51H78.2a3.49 3.49 0 0 1-3.5-3.51v-22.9a3.48 3.48 0 0 1 3.5-3.5h160.4a3.48 3.48 0 0 1 3.5 3.5v22.9zm259.3 121.73a3.48 3.48 0 0 1-3.5 3.5H337.5a3.48 3.48 0 0 1-3.5-3.5v-22.9a3.48 3.48 0 0 1 3.5-3.5h160.4a3.48 3.48 0 0 1 3.5 3.5v22.9zm0-60.91a3.48 3.48 0 0 1-3.5 3.5H337.5a3.48 3.48 0 0 1-3.5-3.5v-22.91a3.48 3.48 0 0 1 3.5-3.5h160.4a3.48 3.48 0 0 1 3.5 3.5v22.91zm0-60.92a3.49 3.49 0 0 1-3.5 3.51H337.5a3.49 3.49 0 0 1-3.5-3.51v-22.8a3.48 3.48 0 0 1 3.5-3.5h160.4a3.48 3.48 0 0 1 3.5 3.5v22.8z"></path>
  </symbol>
  <symbol xmlns="http://www.w3.org/2000/svg" viewBox="0 0 500 461" id="cart">
    <path d="M496.87 60.28a14.2 14.2 0 0 0-12.77-6.7h-377l-6.67-40.19A16.6 16.6 0 0 0 84.38 0H16.1A15.81 15.81 0 0 0 0 16.19a16.15 16.15 0 0 0 16.1 16.18h55l35.53 214.87a10.65 10.65 0 0 0 1.11 4.47l11.66 73.67a16.12 16.12 0 0 0 16.1 12.84h292A15.81 15.81 0 0 0 443.57 322a16.15 16.15 0 0 0-16.1-16.18H148.78l-7.21-43.54h295.34a14.09 14.09 0 0 0 9.44-2.23A15.54 15.54 0 0 0 453 250l46.08-175.8a14.37 14.37 0 0 0-2.21-13.92zM179.32 352.73a54.14 54.14 0 1 0 53.85 54.13 54 54 0 0 0-53.85-54.13zm0 32.37c11.66 0 20.54 9.48 20.54 21.21a21.5 21.5 0 0 1-21.1 21.2c-11.66 0-20.54-9.48-20.54-21.2 0-11.17 9.44-21.21 21.1-21.21zm176.54-32.37a54.14 54.14 0 1 0 53.85 54.13 54 54 0 0 0-53.85-54.13zm-.56 32.37a20.79 20.79 0 0 1 21.1 21.21 21.1 21.1 0 1 1-42.19 0c0-11.17 9.44-21.21 21.09-21.21z"></path>
  </symbol>
  <symbol xmlns="http://www.w3.org/2000/svg" viewBox="0 0 512 448" id="podcast">
    <path d="M256 0C114.52 0 0 114.5 0 256v48a32 32 0 0 0 17.69 28.62l14.38 7.19A112 112 0 0 0 144 448h24a24 24 0 0 0 24-24V248a24 24 0 0 0-24-24h-24a111.65 111.65 0 0 0-80 33.63V256c0-105.87 86.13-192 192-192s192 86.13 192 192v1.63A111.65 111.65 0 0 0 368 224h-24a24 24 0 0 0-24 24v176a24 24 0 0 0 24 24h24a112 112 0 0 0 111.93-108.19l14.38-7.19A32 32 0 0 0 512 304v-48C512 114.52 397.5 0 256 0z"></path>
  </symbol>
  <symbol xmlns="http://www.w3.org/2000/svg" viewBox="0 0 250 434" id="tardis">
    <path d="M248.55 106h1V88h-.95L129.36 45.94l.08 388.06 120.37-44.5.19-.29v-15.27h-9.46l-.17-267.76zm-63.72 50.22l-41.58-6.66V94.25l41.59 10.19zM226 163.3l-36.75-6.07-.12-51.57 36.87 9.79zM0 87.91v18.45h.79l8.46-.15.05 267.5H.06v15.75l120.14 44.46-.08-388L.78 87.9zM55 218l-27 1.62v-42.75l27-3.93zm9.71-113.5l41.58-10.21v55.31l-41.59 6.67zm-41.58 11l37-9.81v51.58l-37 6.08zM125.31 0L97.37 10.38l.01 38.44 27.94-10.69"></path>
    <path d="M125.32 38.13l27.5 10.68-.01-38.44L125.31 0"></path>
  </symbol>
  <symbol xmlns="http://www.w3.org/2000/svg" viewBox="0 0 500 500" id="home">
    <path d="M491.68 168.61L260.29 3.75q-10-7.5-20 0l-73.22 51.62v-38.3c0-8.33-8.33-16.65-16.65-16.65H83.83c-8.32 0-16.64 8.32-16.64 16.65V127L7.26 170.27c-6.66 5-8.32 11.66-6.66 18.32 3.33 6.66 10 11.66 16.65 11.66h41.61v283.1c0 8.32 8.33 16.65 16.65 16.65h349.58c8.32 0 16.65-8.33 16.65-16.65v-283.1h41.61c8.33 0 16.65-8.33 16.65-16.65 0-6.66-3.33-11.66-8.32-14.99z"></path>
  </symbol>
</svg>