<svg width="0" height="0" class="hidden">
  <symbol viewBox="0 0 31 23" xmlns="http://www.w3.org/2000/svg" id="email">
    <path d="M30.41 7.6a.36.36 0 0 1 .59.28v12.25A2.9 2.9 0 0 1 28.1 23H2.9A2.9 2.9 0 0 1 0 20.12V7.88c0-.3.35-.46.59-.28 1.35 1.04 3.15 2.37 9.33 6.8 1.28.93 3.43 2.87 5.58 2.86 2.16.01 4.36-1.97 5.59-2.86 6.17-4.43 7.97-5.76 9.32-6.8zM15.5 15.32c1.4.03 3.43-1.75 4.44-2.48 8.04-5.76 8.65-6.27 10.5-7.7.35-.27.56-.7.56-1.14V2.87A2.9 2.9 0 0 0 28.1 0H2.9A2.9 2.9 0 0 0 0 2.87v1.14c0 .45.2.86.56 1.14 1.85 1.43 2.46 1.94 10.5 7.7 1.01.73 3.04 2.5 4.44 2.48z"
      fill="#5e94f4"></path>
  </symbol>
  <symbol viewBox="0 0 13 26" xmlns="http://www.w3.org/2000/svg" id="facebook">
    <path d="M3.78 25.97V14.36H.01V9.74h3.77V6.1C3.78 2.15 6.12 0 9.54 0c1.64 0 3.04.13 3.45.18v4.13h-2.37c-1.86 0-2.22.91-2.22 2.25v3.18h4.2l-.58 4.62H8.4v11.61" fill="#3b5998" fill-rule="evenodd"></path>
  </symbol>
  <symbol viewBox="0 0 26 26" xmlns="http://www.w3.org/2000/svg" id="instagram">
    <path d="M12.98 6.37a6.64 6.64 0 1 0 0 13.3 6.64 6.64 0 1 0 0-13.3zm0 10.97a4.33 4.33 0 1 1 .01-8.66 4.33 4.33 0 0 1-.01 8.66zM21.45 6.1a1.55 1.55 0 1 1-3.1 0 1.55 1.55 0 0 1 3.1 0zm4.4 1.58c-.1-2.08-.57-3.92-2.09-5.44C22.24.72 20.4.24 18.33.13a157.1 157.1 0 0 0-10.7 0c-2.08.1-3.92.58-5.44 2.1s-2 3.35-2.1 5.43a157.1 157.1 0 0 0 0 10.7c.1 2.08.58 3.92 2.1 5.44 1.52 1.52 3.35 2 5.43 2.1 2.14.12 8.56.12 10.7 0 2.08-.1 3.92-.58 5.44-2.1 1.52-1.52 2-3.36 2.1-5.43.12-2.15.12-8.56 0-10.7zm-2.76 13a4.38 4.38 0 0 1-2.47 2.46c-1.7.68-5.76.52-7.64.52-1.89 0-5.95.15-7.65-.52a4.38 4.38 0 0 1-2.47-2.47c-.67-1.7-.52-5.76-.52-7.64 0-1.89-.15-5.95.52-7.65.46-1.13 1.33-2 2.47-2.47 1.7-.67 5.76-.52 7.65-.52 1.88 0 5.94-.15 7.64.52a4.41 4.41 0 0 1 2.47 2.47c.68 1.7.52 5.76.52 7.65 0 1.88.16 5.94-.52 7.64z"
      fill="#eb294f" fill-rule="evenodd"></path>
  </symbol>
  <symbol viewBox="0 0 31 25" xmlns="http://www.w3.org/2000/svg" id="twitter">
    <path d="M27.81 6.23c.02.27.02.55.02.82C27.83 15.4 21.44 25 9.76 25 6.16 25 2.8 23.96 0 22.17a13.24 13.24 0 0 0 9.42-2.62 6.36 6.36 0 0 1-5.94-4.37c.4.05.79.1 1.2.1.57 0 1.14-.08 1.67-.22a6.32 6.32 0 0 1-5.1-6.2V8.8c.85.47 1.84.76 2.88.8a6.3 6.3 0 0 1-1.97-8.44 18.1 18.1 0 0 0 13.1 6.6A6.33 6.33 0 0 1 21.46 0c1.83 0 3.48.76 4.64 2 1.44-.28 2.81-.8 4.03-1.53a6.3 6.3 0 0 1-2.79 3.48A12.8 12.8 0 0 0 31 2.97a13.6 13.6 0 0 1-3.19 3.26z"
      fill="#1da1f2" fill-rule="evenodd"></path>
  </symbol>
</svg>