<?xml version="1.0" encoding="utf-8"?>

<svg version="1.1" xmlns="http://www.w3.org/2000/svg" xmlns:xlink="http://www.w3.org/1999/xlink" width="720" height="30" viewBox="0 0 720 30">

  <svg id="icon-Facebook-color" width="30" height="30" viewBox="0 0 30 30" x="0" y="0" fill="#4460A0">
    <path d="M16.024 30h-14.368c-0.915 0-1.656-0.742-1.656-1.656v-26.688c0-0.915 0.741-1.656 1.656-1.656h26.689c0.914 0 1.656 0.741 1.656 1.656v26.688c0 0.914-0.741 1.656-1.656 1.656h-7.645v-11.618h3.9l0.584-4.528h-4.483v-2.891c0-1.311 0.364-2.204 2.244-2.204l2.398-0.001v-4.050c-0.415-0.055-1.838-0.178-3.494-0.178-3.457 0-5.823 2.11-5.823 5.985v3.339h-3.91v4.528h3.91v11.618z"></path>
  </svg>

  <svg id="icon-Instagram-color" width="30" height="30" viewBox="0 0 30 30" x="46" y="0" fill="url(#instaiconGrad)">
    <defs>
      <linearGradient id="instaiconGrad" x1="0%" y1="80%" x2="80%" y2="0%">
        <stop offset="0%" stop-color="#FDAE4B" />
        <stop offset="50%" stop-color="#FC376D" />
        <stop offset="100%" stop-color="#BC3BB0" />
      </linearGradient>
    </defs>
    <path d="M15 0c-4.074 0-4.585 0.017-6.185 0.090-1.597 0.073-2.687 0.326-3.641 0.697-0.986 0.383-1.823 0.896-2.657 1.73s-1.347 1.67-1.73 2.657c-0.371 0.954-0.624 2.045-0.697 3.641-0.073 1.6-0.090 2.111-0.090 6.185s0.017 4.585 0.090 6.184c0.073 1.597 0.326 2.687 0.697 3.641 0.383 0.986 0.896 1.823 1.73 2.657s1.67 1.347 2.657 1.73c0.954 0.371 2.045 0.624 3.641 0.697 1.6 0.073 2.111 0.090 6.185 0.090s4.585-0.017 6.184-0.090c1.597-0.073 2.687-0.326 3.641-0.697 0.986-0.383 1.823-0.896 2.657-1.73s1.347-1.67 1.73-2.657c0.371-0.954 0.624-2.045 0.697-3.641 0.073-1.6 0.090-2.111 0.090-6.184s-0.017-4.585-0.090-6.185c-0.073-1.597-0.326-2.687-0.697-3.641-0.383-0.986-0.896-1.823-1.73-2.657s-1.67-1.347-2.657-1.73c-0.954-0.371-2.045-0.624-3.641-0.697-1.6-0.073-2.111-0.090-6.184-0.090zM15 2.703c4.005 0 4.48 0.015 6.061 0.087 1.462 0.067 2.257 0.311 2.785 0.516 0.7 0.272 1.2 0.597 1.725 1.122s0.85 1.025 1.122 1.725c0.205 0.529 0.45 1.323 0.516 2.785 0.072 1.582 0.087 2.056 0.087 6.061s-0.015 4.48-0.087 6.061c-0.067 1.462-0.311 2.257-0.516 2.785-0.272 0.7-0.597 1.2-1.122 1.725s-1.025 0.85-1.725 1.122c-0.529 0.205-1.323 0.45-2.785 0.516-1.581 0.072-2.056 0.087-6.061 0.087s-4.48-0.015-6.061-0.087c-1.463-0.067-2.257-0.311-2.785-0.516-0.7-0.272-1.2-0.597-1.725-1.122s-0.85-1.025-1.122-1.725c-0.205-0.529-0.45-1.323-0.516-2.785-0.072-1.582-0.087-2.056-0.087-6.061s0.015-4.48 0.087-6.061c0.067-1.463 0.311-2.257 0.516-2.785 0.272-0.7 0.597-1.2 1.122-1.725s1.025-0.85 1.725-1.122c0.529-0.205 1.323-0.45 2.785-0.516 1.582-0.072 2.056-0.087 6.061-0.087zM15 7.297c-4.254 0-7.703 3.449-7.703 7.703s3.449 7.703 7.703 7.703c4.254 0 7.703-3.449 7.703-7.703s-3.449-7.703-7.703-7.703zM15 20c-2.761 0-5-2.239-5-5s2.239-5 5-5c2.761 0 5 2.239 5 5s-2.239 5-5 5zM24.807 6.993c0 0.994-0.806 1.8-1.8 1.8s-1.8-0.806-1.8-1.8 0.806-1.8 1.8-1.8c0.994 0 1.8 0.806 1.8 1.8z"></path>
  </svg>

  <svg id="icon-Twitter-color" width="35" height="30" viewBox="0 0 35 30" x="92" y="0" fill="#00AAEC">
    <path d="M35.172 3.551c-1.292 0.602-2.684 1.010-4.143 1.192 1.491-0.936 2.634-2.42 3.173-4.189-1.396 0.867-2.938 1.497-4.585 1.835-1.313-1.471-3.19-2.39-5.266-2.39-3.982 0-7.213 3.391-7.213 7.573 0 0.594 0.062 1.17 0.186 1.725-5.997-0.316-11.313-3.328-14.875-7.915-0.621 1.122-0.976 2.425-0.976 3.811 0 2.626 1.274 4.945 3.21 6.303-1.181-0.037-2.296-0.381-3.27-0.945v0.093c0 3.671 2.488 6.732 5.791 7.426-0.605 0.178-1.243 0.267-1.901 0.267-0.465 0-0.919-0.045-1.358-0.134 0.919 3.008 3.582 5.198 6.741 5.257-2.469 2.032-5.582 3.244-8.962 3.244-0.582 0-1.158-0.035-1.722-0.104 3.194 2.145 6.988 3.4 11.061 3.4 13.275 0 20.531-11.538 20.531-21.547 0-0.329-0.006-0.659-0.019-0.982 1.41-1.068 2.634-2.401 3.598-3.92z"></path>
  </svg>

</svg>
