<svg width="0" height="0" class="hidden">
  <symbol viewBox="0 0 31 23" xmlns="http://www.w3.org/2000/svg" id="email">
    <path d="M30.41 7.6a.36.36 0 0 1 .59.28v12.25A2.9 2.9 0 0 1 28.1 23H2.9A2.9 2.9 0 0 1 0 20.12V7.88c0-.3.35-.46.59-.28 1.35 1.04 3.15 2.37 9.33 6.8 1.28.93 3.43 2.87 5.58 2.86 2.16.01 4.36-1.97 5.59-2.86 6.17-4.43 7.97-5.76 9.32-6.8zM15.5 15.32c1.4.03 3.43-1.75 4.44-2.48 8.04-5.76 8.65-6.27 10.5-7.7.35-.27.56-.7.56-1.14V2.87A2.9 2.9 0 0 0 28.1 0H2.9A2.9 2.9 0 0 0 0 2.87v1.14c0 .45.2.86.56 1.14 1.85 1.43 2.46 1.94 10.5 7.7 1.01.73 3.04 2.5 4.44 2.48z"
      fill="#5e94f4"></path>
  </symbol>
  <symbol viewBox="0 0 13 26" xmlns="http://www.w3.org/2000/svg" id="facebook">
    <path d="M3.78 25.97V14.36H.01V9.74h3.77V6.1C3.78 2.15 6.12 0 9.54 0c1.64 0 3.04.13 3.45.18v4.13h-2.37c-1.86 0-2.22.91-2.22 2.25v3.18h4.2l-.58 4.62H8.4v11.61" fill="#3b5998" fill-rule="evenodd"></path>
  </symbol>
  <symbol viewBox="0 0 26 26" xmlns="http://www.w3.org/2000/svg" id="instagram">
    <path d="M12.98 6.37a6.64 6.64 0 1 0 0 13.3 6.64 6.64 0 1 0 0-13.3zm0 10.97a4.33 4.33 0 1 1 .01-8.66 4.33 4.33 0 0 1-.01 8.66zM21.45 6.1a1.55 1.55 0 1 1-3.1 0 1.55 1.55 0 0 1 3.1 0zm4.4 1.58c-.1-2.08-.57-3.92-2.09-5.44C22.24.72 20.4.24 18.33.13a157.1 157.1 0 0 0-10.7 0c-2.08.1-3.92.58-5.44 2.1s-2 3.35-2.1 5.43a157.1 157.1 0 0 0 0 10.7c.1 2.08.58 3.92 2.1 5.44 1.52 1.52 3.35 2 5.43 2.1 2.14.12 8.56.12 10.7 0 2.08-.1 3.92-.58 5.44-2.1 1.52-1.52 2-3.36 2.1-5.43.12-2.15.12-8.56 0-10.7zm-2.76 13a4.38 4.38 0 0 1-2.47 2.46c-1.7.68-5.76.52-7.64.52-1.89 0-5.95.15-7.65-.52a4.38 4.38 0 0 1-2.47-2.47c-.67-1.7-.52-5.76-.52-7.64 0-1.89-.15-5.95.52-7.65.46-1.13 1.33-2 2.47-2.47 1.7-.67 5.76-.52 7.65-.52 1.88 0 5.94-.15 7.64.52a4.41 4.41 0 0 1 2.47 2.47c.68 1.7.52 5.76.52 7.65 0 1.88.16 5.94-.52 7.64z"
      fill="#eb294f" fill-rule="evenodd"></path>
  </symbol>
  <symbol viewBox="0 0 31 25" xmlns="http://www.w3.org/2000/svg" id="twitter">
    <path d="M27.81 6.23c.02.27.02.55.02.82C27.83 15.4 21.44 25 9.76 25 6.16 25 2.8 23.96 0 22.17a13.24 13.24 0 0 0 9.42-2.62 6.36 6.36 0 0 1-5.94-4.37c.4.05.79.1 1.2.1.57 0 1.14-.08 1.67-.22a6.32 6.32 0 0 1-5.1-6.2V8.8c.85.47 1.84.76 2.88.8a6.3 6.3 0 0 1-1.97-8.44 18.1 18.1 0 0 0 13.1 6.6A6.33 6.33 0 0 1 21.46 0c1.83 0 3.48.76 4.64 2 1.44-.28 2.81-.8 4.03-1.53a6.3 6.3 0 0 1-2.79 3.48A12.8 12.8 0 0 0 31 2.97a13.6 13.6 0 0 1-3.19 3.26z"
      fill="#1da1f2" fill-rule="evenodd"></path>
  </symbol>
  <symbol viewBox="0 0 35 25" xmlns="http://www.w3.org/2000/svg" id="discord">
    <path d="M12.72.18l.3.35c-5.3 1.53-7.75 3.86-7.75 3.86s.65-.36 1.74-.86a22.1 22.1 0 016.68-1.85c.18-.03.32-.06.5-.06a24 24 0 0114.8 2.77S26.68 2.18 21.68.65l.41-.47h.12c.69.01 4.34.23 8.15 3.09 0 0 4.24 7.68 4.24 17.16 0 0-2.5 4.27-9 4.48 0 0-1.07-1.27-1.95-2.39 3.86-1.09 5.33-3.5 5.33-3.5-1.2.8-2.36 1.35-3.39 1.74A20.62 20.62 0 0113.68 22c-1.67-.33-3.11-.8-4.32-1.27-.68-.27-1.41-.6-2.15-1l-.26-.15a.4.4 0 01-.12-.1c-.53-.29-.82-.5-.82-.5s1.4 2.36 5.15 3.48l-1.97 2.45C2.68 24.7.2 20.43.2 20.43c0-9.48 4.24-17.16 4.24-17.16C8.68.09 12.72.17 12.72.17zm-.83 10.98c-1.67 0-3 1.47-3 3.27s1.36 3.26 3 3.26c1.68 0 3-1.47 3-3.26.04-1.8-1.32-3.27-3-3.27zm10.75 0c-1.68 0-3 1.47-3 3.27s1.35 3.26 3 3.26c1.68 0 3-1.47 3-3.26 0-1.8-1.32-3.27-3-3.27z" fill="#7289DA" fill-rule="nonzero"></path>
  </symbol>
  <symbol viewBox="0 0 37 26" xmlns="http://www.w3.org/2000/svg" id="youtube">
    <path d="M19.32 25.97l-7.6-.15c-2.45-.04-4.91.05-7.32-.46C.73 24.6.47 20.87.2 17.75c-.37-4.4-.23-8.88.48-13.24C1.08 2.06 2.65.6 5.08.44c8.19-.58 16.44-.5 24.61-.24.87.03 1.74.16 2.59.31 4.2.75 4.3 4.98 4.58 8.54.27 3.6.15 7.2-.36 10.78-.42 2.95-1.22 5.43-4.58 5.67-4.22.31-8.34.57-12.56.48l-.04-.01zm-4.46-7.49l9.45-5.51-9.45-5.52v11.03z" fill="#ff0000" fill-rule="nonzero"></path>
  </symbol>
</svg>