<svg data-name="Layer 2" xmlns="http://www.w3.org/2000/svg" viewBox="0 0 250 434"><path d="M248.55 106h1V88h-.95L129.36 45.94l.08 388.06 120.37-44.5.19-.29v-15.27h-9.46l-.17-267.76zm-63.72 50.22l-41.58-6.66V94.25l41.59 10.19zM226 163.3l-36.75-6.07-.12-51.57 36.87 9.79zM0 87.91v18.45h.79l8.46-.15.05 267.5H.06v15.75l120.14 44.46-.08-388L.78 87.9zM55 218l-27 1.62v-42.75l27-3.93zm9.71-113.5l41.58-10.21v55.31l-41.59 6.67zm-41.58 11l37-9.81v51.58l-37 6.08zM125.31 0L97.37 10.38l.01 38.44 27.94-10.69" fill="#5e94f4"/><path d="M125.32 38.13l27.5 10.68-.01-38.44L125.31 0"/></svg>