<svg viewBox="0 0 384 666" xmlns="http://www.w3.org/2000/svg">
  <g fill="none" fill-rule="evenodd">
    <path d="M192.133 0l-42.846 15.914.01 58.92 42.85-16.387" fill="#6089c6" fill-rule="nonzero"/>
    <path d="M192.147 58.447l42.159 16.375-.013-58.924L192.133 0" fill="#496b8e" fill-rule="nonzero"/>
    <path d="M92.1 162l-56.672 15.047.017 73.341 56.667-9.32zM162.934 144.546l-63.747 15.645.014 79.368 63.75-10.236z"/>
    <g fill-rule="nonzero">
      <path d="M196.047 70.189l.246.085-.002-.286z" fill="#2eabe2"/>
      <path d="M381.075 162.545h1.467v-27.558h-1.466l-182.735-64.56.121 594.878 184.552-68.221.286-.44v-23.412l-14.504.009-.256-410.47zm-97.695 76.976l-63.753-10.209-.02-84.782 63.753 15.616zm63.109 10.803l-56.346-9.3-.177-79.059 56.515 15.015z" fill="#496b8e"/>
      <path d="M185.452 70.368l.51-.18-.51-.203z" fill="#2eabe2"/>
      <path d="M0 134.766l.01 28.29h1.2l12.967-.218.083 410.046H.09v23.622l-.052.509 184.249 68.158-.118-594.833L1.193 134.75zm84.3 199.417l-41.4 2.485-.008-65.528 41.4-6.023zm14.887-173.99l63.747-15.645.016 84.776-63.743 10.235zm-63.76 16.854L92.099 162l.014 79.068-56.667 9.32zM192.133 0l-42.846 15.914.01 58.92 42.85-16.387" fill="#6089c6"/>
      <path d="M192.147 58.447l42.159 16.375-.013-58.924L192.133 0" fill="#496b8e"/>
      <path d="M192.133 0l-42.846 15.914.01 58.92 42.85-16.387" fill="#6089c6"/>
      <path d="M192.147 58.447l42.159 16.375-.013-58.924L192.133 0" fill="#496b8e"/>
    </g>
  </g>
</svg>
