<?xml version="1.0" encoding="UTF-8"?>
<svg width="352px" height="475px" viewBox="0 0 352 475" version="1.1" xmlns="http://www.w3.org/2000/svg" xmlns:xlink="http://www.w3.org/1999/xlink">
    <!-- Generator: Sketch 40.3 (33839) - http://www.bohemiancoding.com/sketch -->
    <title>Artboard</title>
    <desc>Created with Sketch.</desc>
    <defs></defs>
    <g id="Page-1" stroke="none" stroke-width="1" fill="none" fill-rule="evenodd">
        <g id="Artboard">
            <g id="BBB_logo_-_dark_bg" transform="translate(170.089170, 237.274722) rotate(-15.000000) translate(-170.089170, -237.274722) translate(33.589170, -7.725278)">
                <polyline id="Shape" fill="#6089C6" points="136.389832 7.46069873e-14 105.974673 11.7081839 105.981204 55.057977 136.399628 43.0017241"></polyline>
                <polyline id="Shape" fill="#496B8E" points="136.399628 43.0017241 166.327152 55.0489655 166.327152 55.0489655 166.318444 11.6969195 136.389832 -7.10542736e-14"></polyline>
                <path id="Shape" stroke="#2EABE2" stroke-width="2.70000004" fill="#000000"></path>
                <polygon id="Shape" fill="#2EABE2" points="139.1687 51.6413586 139.35014 51.7048626 139.349006 51.4928046"></polygon>
                <path d="M270.514555,119.590414 L271.556223,119.590414 L271.556223,99.3145517 L270.515644,99.3145517 L140.797053,51.816092 L140.883043,489.488598 L271.891472,439.295701 L272.093927,438.972414 L272.093927,421.746943 L261.798076,421.753701 L261.616301,119.756 L270.514555,119.590414 Z M201.163682,176.224276 L155.907215,168.713195 L155.893064,106.335632 L201.149532,117.825287 L201.163682,176.224276 Z M245.962992,184.172414 L205.96493,177.32931 L205.838668,119.163494 L245.95755,130.21046 L245.962992,184.172414 Z" id="Shape" fill="#496B8E"></path>
                <polygon id="Shape" fill="#2EABE2" points="131.647362 51.7740517 132.02385 51.6413737 131.647362 51.4905517"></polygon>
                <path d="M-8.22522262e-14,99.1523448 L0.00653082897,119.965517 L0.85880401,119.965517 L10.0640074,119.805563 L10.1227849,421.491241 L0.0642198182,421.491241 L0.0642198182,438.871034 L0.0272117874,439.245011 L130.820124,489.391724 L130.736311,51.7518851 L0.846830823,99.139954 L-8.22522262e-14,99.1523448 Z M59.8419859,245.870736 L30.4532555,247.698943 L30.4478131,199.487448 L59.8365435,195.056046 L59.8419859,245.870736 Z M70.4099556,117.85908 L115.66207,106.349149 L115.674043,168.722207 L70.4241057,176.252437 L70.4099556,117.85908 Z M25.1491339,130.260023 L65.3779519,119.189402 L65.3877481,177.361977 L25.1611071,184.219724 L25.1491339,130.260023 Z" id="Shape" fill="#6089C6"></path>
                <polyline id="Shape" fill="#6089C6" points="136.389832 1.56319402e-13 105.974673 11.7081839 105.981204 55.057977 136.399628 43.0017241"></polyline>
                <polyline id="Shape" fill="#496B8E" points="136.399628 43.0017241 166.327152 55.0489655 166.327152 55.0489655 166.318444 11.6969195 136.389832 -7.10542736e-14"></polyline>
                <polyline id="Shape" fill="#6089C6" points="136.389832 1.56319402e-13 105.974673 11.7081839 105.981204 55.057977 136.399628 43.0017241"></polyline>
                <polyline id="Shape" fill="#496B8E" points="136.399628 43.0017241 166.327152 55.0489655 166.327152 55.0489655 166.318444 11.6969195 136.389832 -7.10542736e-14"></polyline>
            </g>
        </g>
    </g>
</svg>