<?xml version="1.0" encoding="UTF-8"?>
<svg width="34px" height="29px" viewBox="0 0 34 29" version="1.1" xmlns="http://www.w3.org/2000/svg" xmlns:xlink="http://www.w3.org/1999/xlink">
    <!-- Generator: Sketch 41 (35326) - http://www.bohemiancoding.com/sketch -->
    <title>Twitter-color</title>
    <desc>Created with Sketch.</desc>
    <defs></defs>
    <g id="Page-1" stroke="none" stroke-width="1" fill="none" fill-rule="evenodd">
        <g id="Homepage" transform="translate(-961.000000, -1156.000000)" fill="#00AAEC">
            <g id="sidebar" transform="translate(931.000000, 1041.000000)">
                <g id="social">
                    <path d="M64,118.433081 C62.750719,119.015385 61.4056465,119.409173 59.9947174,119.585121 C61.4355814,118.680246 62.5411751,117.245432 63.0620414,115.536222 C61.7129776,116.37407 60.2222222,116.983604 58.6296883,117.310365 C57.3604508,115.888118 55.546399,115 53.5387686,115 C49.6891472,115 46.5659447,118.278079 46.5659447,122.320693 C46.5659447,122.894619 46.6258144,123.451788 46.7455538,123.98801 C40.9481716,123.682196 35.8093561,120.770675 32.3668486,116.336367 C31.766156,117.42138 31.4229031,118.680246 31.4229031,120.020802 C31.4229031,122.55948 32.6542232,124.800722 34.526149,126.114048 C33.3846334,126.07844 32.3069789,125.745395 31.3650291,125.200795 L31.3650291,125.290863 C31.3650291,128.839148 33.7697952,131.798844 36.9628456,132.469122 C36.3781182,132.640881 35.7614604,132.726761 35.1248459,132.726761 C34.6758232,132.726761 34.2367788,132.682774 33.8117039,132.596894 C34.6997711,135.504225 37.274168,137.621885 40.3275225,137.67844 C37.9407173,139.643192 34.9312672,140.814085 31.6643775,140.814085 C31.1016024,140.814085 30.5448142,140.780571 30,140.713543 C33.0872806,142.787216 36.7552973,144 40.6927276,144 C53.524799,144 60.5395316,132.846154 60.5395316,123.171109 C60.5395316,122.852727 60.5335446,122.534345 60.5215707,122.222246 C61.8846041,121.189599 63.0680284,119.901408 64,118.433081" id="Twitter"></path>
                </g>
            </g>
        </g>
    </g>
</svg>